<mxfile host="Electron" modified="2023-04-13T12:10:42.361Z" agent="Mozilla/5.0 (X11; Linux x86_64) AppleWebKit/537.36 (KHTML, like Gecko) draw.io/21.1.2 Chrome/106.0.5249.199 Electron/21.4.3 Safari/537.36" etag="bHP5pQKBQiohmJMaWt3J" version="21.1.2" type="device" pages="6">
  <diagram name="pc" id="nPVtAR7yXAO4nVBtrVuD">
    <mxGraphModel dx="793" dy="1087" grid="1" gridSize="10" guides="1" tooltips="1" connect="1" arrows="1" fold="1" page="1" pageScale="1" pageWidth="850" pageHeight="1100" math="0" shadow="0">
      <root>
        <mxCell id="0" />
        <mxCell id="1" parent="0" />
        <mxCell id="8alvvatvQHZMMM2ewKF0-5" value="Src" style="swimlane;whiteSpace=wrap;html=1;fillColor=#e1d5e7;strokeColor=#9673a6;" parent="1" vertex="1">
          <mxGeometry x="100" y="10" width="150" height="170" as="geometry" />
        </mxCell>
        <mxCell id="8alvvatvQHZMMM2ewKF0-8" value="Src" style="swimlane;whiteSpace=wrap;html=1;fillColor=#ffe6cc;strokeColor=#d79b00;" parent="8alvvatvQHZMMM2ewKF0-5" vertex="1">
          <mxGeometry x="20" y="40" width="110" height="90" as="geometry" />
        </mxCell>
        <mxCell id="8alvvatvQHZMMM2ewKF0-9" value="src_native" style="rounded=1;whiteSpace=wrap;html=1;fillColor=#f8cecc;strokeColor=#b85450;" parent="8alvvatvQHZMMM2ewKF0-8" vertex="1">
          <mxGeometry x="17.5" y="32.5" width="75" height="45" as="geometry" />
        </mxCell>
        <mxCell id="8alvvatvQHZMMM2ewKF0-21" style="edgeStyle=orthogonalEdgeStyle;rounded=0;orthogonalLoop=1;jettySize=auto;html=1;exitX=0.5;exitY=0;exitDx=0;exitDy=0;exitPerimeter=0;entryX=0.5;entryY=1;entryDx=0;entryDy=0;endArrow=none;endFill=0;dashed=1;fillColor=#a20025;strokeColor=#6F0000;strokeWidth=2;" parent="8alvvatvQHZMMM2ewKF0-5" source="8alvvatvQHZMMM2ewKF0-20" target="8alvvatvQHZMMM2ewKF0-9" edge="1">
          <mxGeometry relative="1" as="geometry" />
        </mxCell>
        <mxCell id="8alvvatvQHZMMM2ewKF0-22" value="predef_data" style="edgeLabel;html=1;align=center;verticalAlign=middle;resizable=0;points=[];fontSize=8;" parent="8alvvatvQHZMMM2ewKF0-21" vertex="1" connectable="0">
          <mxGeometry x="-0.2198" relative="1" as="geometry">
            <mxPoint x="25" y="6" as="offset" />
          </mxGeometry>
        </mxCell>
        <mxCell id="8alvvatvQHZMMM2ewKF0-20" value="" style="pointerEvents=1;verticalLabelPosition=bottom;shadow=0;dashed=0;align=center;html=1;verticalAlign=top;shape=mxgraph.electrical.signal_sources.signal_ground;" parent="8alvvatvQHZMMM2ewKF0-5" vertex="1">
          <mxGeometry x="65" y="140" width="20" height="20" as="geometry" />
        </mxCell>
        <mxCell id="8alvvatvQHZMMM2ewKF0-57" style="edgeStyle=orthogonalEdgeStyle;rounded=0;orthogonalLoop=1;jettySize=auto;html=1;exitX=1;exitY=0.5;exitDx=0;exitDy=0;entryX=0;entryY=0.5;entryDx=0;entryDy=0;" parent="1" source="8alvvatvQHZMMM2ewKF0-11" target="8alvvatvQHZMMM2ewKF0-9" edge="1">
          <mxGeometry relative="1" as="geometry" />
        </mxCell>
        <mxCell id="8alvvatvQHZMMM2ewKF0-11" value="trig" style="ellipse;whiteSpace=wrap;html=1;aspect=fixed;fillColor=#fff2cc;strokeColor=#d6b656;" parent="1" vertex="1">
          <mxGeometry x="10" y="75" width="60" height="60" as="geometry" />
        </mxCell>
        <mxCell id="8alvvatvQHZMMM2ewKF0-58" style="edgeStyle=orthogonalEdgeStyle;rounded=0;orthogonalLoop=1;jettySize=auto;html=1;exitX=1;exitY=0.5;exitDx=0;exitDy=0;entryX=0;entryY=0.5;entryDx=0;entryDy=0;" parent="1" source="8alvvatvQHZMMM2ewKF0-13" target="8alvvatvQHZMMM2ewKF0-32" edge="1">
          <mxGeometry relative="1" as="geometry" />
        </mxCell>
        <mxCell id="8alvvatvQHZMMM2ewKF0-13" value="stat" style="ellipse;whiteSpace=wrap;html=1;aspect=fixed;fillColor=#fff2cc;strokeColor=#d6b656;" parent="1" vertex="1">
          <mxGeometry x="10" y="215" width="60" height="60" as="geometry" />
        </mxCell>
        <mxCell id="8alvvatvQHZMMM2ewKF0-14" value="Proc" style="swimlane;whiteSpace=wrap;html=1;fillColor=#e1d5e7;strokeColor=#9673a6;" parent="1" vertex="1">
          <mxGeometry x="270" y="10" width="280" height="170" as="geometry" />
        </mxCell>
        <mxCell id="8alvvatvQHZMMM2ewKF0-15" value="Preproc" style="swimlane;whiteSpace=wrap;html=1;fillColor=#ffe6cc;strokeColor=#d79b00;" parent="8alvvatvQHZMMM2ewKF0-14" vertex="1">
          <mxGeometry x="23" y="40" width="105" height="90" as="geometry" />
        </mxCell>
        <mxCell id="8alvvatvQHZMMM2ewKF0-16" value="preproc_native" style="rounded=1;whiteSpace=wrap;html=1;fillColor=#f8cecc;strokeColor=#b85450;" parent="8alvvatvQHZMMM2ewKF0-15" vertex="1">
          <mxGeometry x="12.5" y="32.5" width="80" height="45" as="geometry" />
        </mxCell>
        <mxCell id="8alvvatvQHZMMM2ewKF0-26" value="Maincomp" style="swimlane;whiteSpace=wrap;html=1;fillColor=#ffe6cc;strokeColor=#d79b00;" parent="8alvvatvQHZMMM2ewKF0-14" vertex="1">
          <mxGeometry x="140" y="40" width="120" height="90" as="geometry" />
        </mxCell>
        <mxCell id="8alvvatvQHZMMM2ewKF0-27" value="maincomp_native" style="rounded=1;whiteSpace=wrap;html=1;fillColor=#f8cecc;strokeColor=#b85450;" parent="8alvvatvQHZMMM2ewKF0-26" vertex="1">
          <mxGeometry x="11.25" y="32.5" width="97.5" height="45" as="geometry" />
        </mxCell>
        <mxCell id="8alvvatvQHZMMM2ewKF0-55" style="edgeStyle=orthogonalEdgeStyle;rounded=0;orthogonalLoop=1;jettySize=auto;html=1;exitX=1;exitY=0.5;exitDx=0;exitDy=0;entryX=0;entryY=0.5;entryDx=0;entryDy=0;" parent="8alvvatvQHZMMM2ewKF0-14" source="8alvvatvQHZMMM2ewKF0-16" target="8alvvatvQHZMMM2ewKF0-27" edge="1">
          <mxGeometry relative="1" as="geometry" />
        </mxCell>
        <mxCell id="8alvvatvQHZMMM2ewKF0-17" value="Sink" style="swimlane;whiteSpace=wrap;html=1;fillColor=#e1d5e7;strokeColor=#9673a6;startSize=23;" parent="1" vertex="1">
          <mxGeometry x="570" y="10" width="200" height="310" as="geometry" />
        </mxCell>
        <mxCell id="8alvvatvQHZMMM2ewKF0-18" value="sink" style="swimlane;whiteSpace=wrap;html=1;fillColor=#ffe6cc;strokeColor=#d79b00;" parent="8alvvatvQHZMMM2ewKF0-17" vertex="1">
          <mxGeometry x="17.5" y="40" width="155" height="85" as="geometry" />
        </mxCell>
        <mxCell id="8alvvatvQHZMMM2ewKF0-19" value="&lt;div&gt;sink&lt;/div&gt;" style="rounded=1;whiteSpace=wrap;html=1;fillColor=#f8cecc;strokeColor=#b85450;" parent="8alvvatvQHZMMM2ewKF0-18" vertex="1">
          <mxGeometry x="15" y="37.5" width="125" height="35" as="geometry" />
        </mxCell>
        <mxCell id="8alvvatvQHZMMM2ewKF0-31" value="stat" style="swimlane;whiteSpace=wrap;html=1;fillColor=#ffe6cc;strokeColor=#d79b00;" parent="8alvvatvQHZMMM2ewKF0-17" vertex="1">
          <mxGeometry x="17.5" y="180" width="155" height="85" as="geometry" />
        </mxCell>
        <mxCell id="8alvvatvQHZMMM2ewKF0-32" value="stat" style="rounded=1;whiteSpace=wrap;html=1;fillColor=#f8cecc;strokeColor=#b85450;" parent="8alvvatvQHZMMM2ewKF0-31" vertex="1">
          <mxGeometry x="15" y="37.5" width="125" height="35" as="geometry" />
        </mxCell>
        <mxCell id="8alvvatvQHZMMM2ewKF0-33" style="edgeStyle=orthogonalEdgeStyle;rounded=0;orthogonalLoop=1;jettySize=auto;html=1;entryX=0.041;entryY=1.006;entryDx=0;entryDy=0;endArrow=none;endFill=0;dashed=1;fillColor=#a20025;strokeColor=#6F0000;strokeWidth=2;exitX=0.5;exitY=0;exitDx=0;exitDy=0;exitPerimeter=0;entryPerimeter=0;" parent="8alvvatvQHZMMM2ewKF0-17" source="8alvvatvQHZMMM2ewKF0-35" target="8alvvatvQHZMMM2ewKF0-19" edge="1">
          <mxGeometry relative="1" as="geometry">
            <mxPoint x="40" y="150" as="sourcePoint" />
            <mxPoint x="40" y="120" as="targetPoint" />
          </mxGeometry>
        </mxCell>
        <mxCell id="8alvvatvQHZMMM2ewKF0-34" value="inited" style="edgeLabel;html=1;align=center;verticalAlign=middle;resizable=0;points=[];fontSize=8;" parent="8alvvatvQHZMMM2ewKF0-33" vertex="1" connectable="0">
          <mxGeometry x="-0.2198" relative="1" as="geometry">
            <mxPoint x="-17" y="2" as="offset" />
          </mxGeometry>
        </mxCell>
        <mxCell id="8alvvatvQHZMMM2ewKF0-35" value="" style="pointerEvents=1;verticalLabelPosition=bottom;shadow=0;dashed=0;align=center;html=1;verticalAlign=top;shape=mxgraph.electrical.signal_sources.signal_ground;" parent="8alvvatvQHZMMM2ewKF0-17" vertex="1">
          <mxGeometry x="30" y="150" width="20" height="20" as="geometry" />
        </mxCell>
        <mxCell id="8alvvatvQHZMMM2ewKF0-37" style="edgeStyle=orthogonalEdgeStyle;rounded=0;orthogonalLoop=1;jettySize=auto;html=1;entryX=0.25;entryY=1;entryDx=0;entryDy=0;endArrow=none;endFill=0;dashed=1;fillColor=#a20025;strokeColor=#6F0000;strokeWidth=2;exitX=0.25;exitY=0;exitDx=0;exitDy=0;" parent="8alvvatvQHZMMM2ewKF0-17" source="8alvvatvQHZMMM2ewKF0-32" target="8alvvatvQHZMMM2ewKF0-19" edge="1">
          <mxGeometry relative="1" as="geometry">
            <mxPoint x="50" y="160" as="sourcePoint" />
            <mxPoint x="50" y="130" as="targetPoint" />
            <Array as="points">
              <mxPoint x="64" y="170" />
              <mxPoint x="64" y="170" />
            </Array>
          </mxGeometry>
        </mxCell>
        <mxCell id="8alvvatvQHZMMM2ewKF0-38" value="data_count" style="edgeLabel;html=1;align=center;verticalAlign=middle;resizable=0;points=[];fontSize=8;" parent="8alvvatvQHZMMM2ewKF0-37" vertex="1" connectable="0">
          <mxGeometry x="-0.2198" relative="1" as="geometry">
            <mxPoint x="21" y="-24" as="offset" />
          </mxGeometry>
        </mxCell>
        <mxCell id="8alvvatvQHZMMM2ewKF0-39" style="edgeStyle=orthogonalEdgeStyle;rounded=0;orthogonalLoop=1;jettySize=auto;html=1;entryX=0.75;entryY=1;entryDx=0;entryDy=0;endArrow=none;endFill=0;dashed=1;fillColor=#a20025;strokeColor=#6F0000;strokeWidth=2;exitX=0.75;exitY=0;exitDx=0;exitDy=0;" parent="8alvvatvQHZMMM2ewKF0-17" source="8alvvatvQHZMMM2ewKF0-32" target="8alvvatvQHZMMM2ewKF0-19" edge="1">
          <mxGeometry relative="1" as="geometry">
            <mxPoint x="130" y="220" as="sourcePoint" />
            <mxPoint x="130" y="120" as="targetPoint" />
            <Array as="points">
              <mxPoint x="126" y="170" />
              <mxPoint x="126" y="170" />
            </Array>
          </mxGeometry>
        </mxCell>
        <mxCell id="8alvvatvQHZMMM2ewKF0-40" value="packet_count" style="edgeLabel;html=1;align=center;verticalAlign=middle;resizable=0;points=[];fontSize=8;" parent="8alvvatvQHZMMM2ewKF0-39" vertex="1" connectable="0">
          <mxGeometry x="-0.2198" relative="1" as="geometry">
            <mxPoint x="24" y="-24" as="offset" />
          </mxGeometry>
        </mxCell>
        <mxCell id="8alvvatvQHZMMM2ewKF0-41" style="edgeStyle=orthogonalEdgeStyle;rounded=0;orthogonalLoop=1;jettySize=auto;html=1;endArrow=none;endFill=0;dashed=1;fillColor=#a20025;strokeColor=#6F0000;strokeWidth=2;exitX=0.5;exitY=0;exitDx=0;exitDy=0;exitPerimeter=0;entryX=0.218;entryY=1.03;entryDx=0;entryDy=0;entryPerimeter=0;" parent="8alvvatvQHZMMM2ewKF0-17" source="8alvvatvQHZMMM2ewKF0-43" edge="1">
          <mxGeometry relative="1" as="geometry">
            <mxPoint x="50" y="280" as="sourcePoint" />
            <mxPoint x="49.75" y="253.54999999999995" as="targetPoint" />
          </mxGeometry>
        </mxCell>
        <mxCell id="8alvvatvQHZMMM2ewKF0-42" value="last_packet_count" style="edgeLabel;html=1;align=center;verticalAlign=middle;resizable=0;points=[];fontSize=8;" parent="8alvvatvQHZMMM2ewKF0-41" vertex="1" connectable="0">
          <mxGeometry x="-0.2198" relative="1" as="geometry">
            <mxPoint x="-20" as="offset" />
          </mxGeometry>
        </mxCell>
        <mxCell id="8alvvatvQHZMMM2ewKF0-43" value="" style="pointerEvents=1;verticalLabelPosition=bottom;shadow=0;dashed=0;align=center;html=1;verticalAlign=top;shape=mxgraph.electrical.signal_sources.signal_ground;" parent="8alvvatvQHZMMM2ewKF0-17" vertex="1">
          <mxGeometry x="40" y="280" width="20" height="20" as="geometry" />
        </mxCell>
        <mxCell id="8alvvatvQHZMMM2ewKF0-48" style="edgeStyle=orthogonalEdgeStyle;rounded=0;orthogonalLoop=1;jettySize=auto;html=1;endArrow=none;endFill=0;dashed=1;fillColor=#a20025;strokeColor=#6F0000;strokeWidth=2;exitX=0.5;exitY=0;exitDx=0;exitDy=0;exitPerimeter=0;entryX=0.218;entryY=1.03;entryDx=0;entryDy=0;entryPerimeter=0;" parent="8alvvatvQHZMMM2ewKF0-17" source="8alvvatvQHZMMM2ewKF0-50" edge="1">
          <mxGeometry relative="1" as="geometry">
            <mxPoint x="95" y="280" as="sourcePoint" />
            <mxPoint x="95" y="254" as="targetPoint" />
            <Array as="points">
              <mxPoint x="95" y="260" />
              <mxPoint x="95" y="260" />
            </Array>
          </mxGeometry>
        </mxCell>
        <mxCell id="8alvvatvQHZMMM2ewKF0-49" value="last_data_count" style="edgeLabel;html=1;align=center;verticalAlign=middle;resizable=0;points=[];fontSize=8;" parent="8alvvatvQHZMMM2ewKF0-48" vertex="1" connectable="0">
          <mxGeometry x="-0.2198" relative="1" as="geometry">
            <mxPoint y="10" as="offset" />
          </mxGeometry>
        </mxCell>
        <mxCell id="8alvvatvQHZMMM2ewKF0-50" value="" style="pointerEvents=1;verticalLabelPosition=bottom;shadow=0;dashed=0;align=center;html=1;verticalAlign=top;shape=mxgraph.electrical.signal_sources.signal_ground;" parent="8alvvatvQHZMMM2ewKF0-17" vertex="1">
          <mxGeometry x="85" y="280" width="20" height="20" as="geometry" />
        </mxCell>
        <mxCell id="8alvvatvQHZMMM2ewKF0-51" style="edgeStyle=orthogonalEdgeStyle;rounded=0;orthogonalLoop=1;jettySize=auto;html=1;endArrow=none;endFill=0;dashed=1;fillColor=#a20025;strokeColor=#6F0000;strokeWidth=2;exitX=0.5;exitY=0;exitDx=0;exitDy=0;exitPerimeter=0;entryX=0.218;entryY=1.03;entryDx=0;entryDy=0;entryPerimeter=0;" parent="8alvvatvQHZMMM2ewKF0-17" source="8alvvatvQHZMMM2ewKF0-53" edge="1">
          <mxGeometry relative="1" as="geometry">
            <mxPoint x="140" y="280" as="sourcePoint" />
            <mxPoint x="140" y="254" as="targetPoint" />
            <Array as="points">
              <mxPoint x="140.5" y="270" />
              <mxPoint x="140.5" y="270" />
            </Array>
          </mxGeometry>
        </mxCell>
        <mxCell id="8alvvatvQHZMMM2ewKF0-52" value="last_time" style="edgeLabel;html=1;align=center;verticalAlign=middle;resizable=0;points=[];fontSize=8;" parent="8alvvatvQHZMMM2ewKF0-51" vertex="1" connectable="0">
          <mxGeometry x="-0.2198" relative="1" as="geometry">
            <mxPoint x="18" as="offset" />
          </mxGeometry>
        </mxCell>
        <mxCell id="8alvvatvQHZMMM2ewKF0-53" value="" style="pointerEvents=1;verticalLabelPosition=bottom;shadow=0;dashed=0;align=center;html=1;verticalAlign=top;shape=mxgraph.electrical.signal_sources.signal_ground;" parent="8alvvatvQHZMMM2ewKF0-17" vertex="1">
          <mxGeometry x="130" y="280" width="20" height="20" as="geometry" />
        </mxCell>
        <mxCell id="8alvvatvQHZMMM2ewKF0-54" style="edgeStyle=orthogonalEdgeStyle;rounded=0;orthogonalLoop=1;jettySize=auto;html=1;exitX=1;exitY=0.5;exitDx=0;exitDy=0;entryX=0;entryY=0.5;entryDx=0;entryDy=0;" parent="1" source="8alvvatvQHZMMM2ewKF0-27" target="8alvvatvQHZMMM2ewKF0-19" edge="1">
          <mxGeometry relative="1" as="geometry" />
        </mxCell>
        <mxCell id="8alvvatvQHZMMM2ewKF0-56" style="edgeStyle=orthogonalEdgeStyle;rounded=0;orthogonalLoop=1;jettySize=auto;html=1;exitX=1;exitY=0.5;exitDx=0;exitDy=0;entryX=0;entryY=0.5;entryDx=0;entryDy=0;" parent="1" source="8alvvatvQHZMMM2ewKF0-9" target="8alvvatvQHZMMM2ewKF0-16" edge="1">
          <mxGeometry relative="1" as="geometry" />
        </mxCell>
      </root>
    </mxGraphModel>
  </diagram>
  <diagram id="V0MLZaTLNw5HauZ7aYp-" name="pc-prob-exp">
    <mxGraphModel dx="793" dy="1087" grid="1" gridSize="10" guides="1" tooltips="1" connect="1" arrows="1" fold="1" page="1" pageScale="1" pageWidth="850" pageHeight="1100" math="0" shadow="0">
      <root>
        <mxCell id="0" />
        <mxCell id="1" parent="0" />
        <mxCell id="B4ElUztjHzFX7PLNb7sK-1" value="" style="group" parent="1" vertex="1" connectable="0">
          <mxGeometry x="405" y="325" width="14" height="11" as="geometry" />
        </mxCell>
        <mxCell id="B4ElUztjHzFX7PLNb7sK-2" value="" style="ellipse;whiteSpace=wrap;html=1;aspect=fixed;" parent="B4ElUztjHzFX7PLNb7sK-1" vertex="1">
          <mxGeometry y="1" width="9" height="9" as="geometry" />
        </mxCell>
        <mxCell id="B4ElUztjHzFX7PLNb7sK-3" value="" style="rounded=0;whiteSpace=wrap;html=1;strokeColor=none;strokeOpacity=100;" parent="1" vertex="1">
          <mxGeometry x="409" y="325" width="10" height="11" as="geometry" />
        </mxCell>
        <mxCell id="B4ElUztjHzFX7PLNb7sK-4" value="Src" style="swimlane;whiteSpace=wrap;html=1;fillColor=#e1d5e7;strokeColor=#9673a6;" parent="1" vertex="1">
          <mxGeometry x="100" y="10" width="300" height="310" as="geometry" />
        </mxCell>
        <mxCell id="B4ElUztjHzFX7PLNb7sK-5" value="Src" style="swimlane;whiteSpace=wrap;html=1;fillColor=#ffe6cc;strokeColor=#d79b00;" parent="B4ElUztjHzFX7PLNb7sK-4" vertex="1">
          <mxGeometry x="20" y="40" width="110" height="90" as="geometry" />
        </mxCell>
        <mxCell id="B4ElUztjHzFX7PLNb7sK-6" value="src_native" style="rounded=1;whiteSpace=wrap;html=1;fillColor=#f8cecc;strokeColor=#b85450;" parent="B4ElUztjHzFX7PLNb7sK-5" vertex="1">
          <mxGeometry x="17.5" y="32.5" width="75" height="45" as="geometry" />
        </mxCell>
        <mxCell id="B4ElUztjHzFX7PLNb7sK-7" style="edgeStyle=orthogonalEdgeStyle;rounded=0;orthogonalLoop=1;jettySize=auto;html=1;exitX=0.5;exitY=0;exitDx=0;exitDy=0;exitPerimeter=0;entryX=0.5;entryY=1;entryDx=0;entryDy=0;endArrow=none;endFill=0;dashed=1;fillColor=#a20025;strokeColor=#6F0000;strokeWidth=2;" parent="B4ElUztjHzFX7PLNb7sK-4" source="B4ElUztjHzFX7PLNb7sK-9" target="B4ElUztjHzFX7PLNb7sK-6" edge="1">
          <mxGeometry relative="1" as="geometry" />
        </mxCell>
        <mxCell id="B4ElUztjHzFX7PLNb7sK-8" value="predef_data" style="edgeLabel;html=1;align=center;verticalAlign=middle;resizable=0;points=[];fontSize=8;" parent="B4ElUztjHzFX7PLNb7sK-7" vertex="1" connectable="0">
          <mxGeometry x="-0.2198" relative="1" as="geometry">
            <mxPoint x="25" y="6" as="offset" />
          </mxGeometry>
        </mxCell>
        <mxCell id="B4ElUztjHzFX7PLNb7sK-9" value="" style="pointerEvents=1;verticalLabelPosition=bottom;shadow=0;dashed=0;align=center;html=1;verticalAlign=top;shape=mxgraph.electrical.signal_sources.signal_ground;" parent="B4ElUztjHzFX7PLNb7sK-4" vertex="1">
          <mxGeometry x="65" y="140" width="20" height="20" as="geometry" />
        </mxCell>
        <mxCell id="B4ElUztjHzFX7PLNb7sK-10" value="Lib.Probes.CounterProbe" style="swimlane;whiteSpace=wrap;html=1;dashed=1;" parent="B4ElUztjHzFX7PLNb7sK-4" vertex="1">
          <mxGeometry x="150" y="40" width="140" height="250" as="geometry" />
        </mxCell>
        <mxCell id="B4ElUztjHzFX7PLNb7sK-11" value="packet-cnt" style="swimlane;whiteSpace=wrap;html=1;fillColor=#ffe6cc;strokeColor=#d79b00;" parent="B4ElUztjHzFX7PLNb7sK-10" vertex="1">
          <mxGeometry x="40" y="80" width="84.5" height="70" as="geometry" />
        </mxCell>
        <mxCell id="B4ElUztjHzFX7PLNb7sK-12" value="_kern" style="rounded=1;whiteSpace=wrap;html=1;fillColor=#f8cecc;strokeColor=#b85450;" parent="B4ElUztjHzFX7PLNb7sK-11" vertex="1">
          <mxGeometry x="12.88" y="31.25" width="57.5" height="27.5" as="geometry" />
        </mxCell>
        <mxCell id="B4ElUztjHzFX7PLNb7sK-13" value="buffer-flush" style="swimlane;whiteSpace=wrap;html=1;fillColor=#ffe6cc;strokeColor=#d79b00;" parent="B4ElUztjHzFX7PLNb7sK-10" vertex="1">
          <mxGeometry x="40" y="170" width="84.5" height="70" as="geometry" />
        </mxCell>
        <mxCell id="B4ElUztjHzFX7PLNb7sK-14" value="_kern" style="rounded=1;whiteSpace=wrap;html=1;fillColor=#f8cecc;strokeColor=#b85450;" parent="B4ElUztjHzFX7PLNb7sK-13" vertex="1">
          <mxGeometry x="12.25" y="32.5" width="58.75" height="27.5" as="geometry" />
        </mxCell>
        <mxCell id="B4ElUztjHzFX7PLNb7sK-15" value="" style="endArrow=none;html=1;rounded=0;fillColor=#a20025;strokeColor=#6F0000;dashed=1;entryX=0.5;entryY=1;entryDx=0;entryDy=0;" parent="B4ElUztjHzFX7PLNb7sK-10" source="B4ElUztjHzFX7PLNb7sK-14" target="B4ElUztjHzFX7PLNb7sK-12" edge="1">
          <mxGeometry width="50" height="50" relative="1" as="geometry">
            <mxPoint x="130" y="100" as="sourcePoint" />
            <mxPoint x="180" y="50" as="targetPoint" />
          </mxGeometry>
        </mxCell>
        <mxCell id="B4ElUztjHzFX7PLNb7sK-16" value="&lt;font style=&quot;font-size: 8px;&quot;&gt;cnt_buff&lt;/font&gt;" style="edgeLabel;html=1;align=center;verticalAlign=middle;resizable=0;points=[];" parent="B4ElUztjHzFX7PLNb7sK-15" vertex="1" connectable="0">
          <mxGeometry x="0.4496" y="1" relative="1" as="geometry">
            <mxPoint x="27" y="4" as="offset" />
          </mxGeometry>
        </mxCell>
        <mxCell id="B4ElUztjHzFX7PLNb7sK-17" style="edgeStyle=orthogonalEdgeStyle;rounded=0;orthogonalLoop=1;jettySize=auto;html=1;exitX=1;exitY=0.5;exitDx=0;exitDy=0;entryX=0;entryY=0.5;entryDx=0;entryDy=0;" parent="B4ElUztjHzFX7PLNb7sK-4" source="B4ElUztjHzFX7PLNb7sK-6" target="B4ElUztjHzFX7PLNb7sK-12" edge="1">
          <mxGeometry relative="1" as="geometry">
            <Array as="points">
              <mxPoint x="170" y="95" />
              <mxPoint x="170" y="165" />
            </Array>
          </mxGeometry>
        </mxCell>
        <mxCell id="B4ElUztjHzFX7PLNb7sK-18" style="edgeStyle=orthogonalEdgeStyle;rounded=0;orthogonalLoop=1;jettySize=auto;html=1;exitX=1;exitY=0.5;exitDx=0;exitDy=0;entryX=0;entryY=0.5;entryDx=0;entryDy=0;" parent="1" source="B4ElUztjHzFX7PLNb7sK-19" target="B4ElUztjHzFX7PLNb7sK-6" edge="1">
          <mxGeometry relative="1" as="geometry" />
        </mxCell>
        <mxCell id="B4ElUztjHzFX7PLNb7sK-19" value="trig" style="ellipse;whiteSpace=wrap;html=1;aspect=fixed;fillColor=#fff2cc;strokeColor=#d6b656;" parent="1" vertex="1">
          <mxGeometry x="10" y="75" width="60" height="60" as="geometry" />
        </mxCell>
        <mxCell id="B4ElUztjHzFX7PLNb7sK-20" style="edgeStyle=orthogonalEdgeStyle;rounded=0;orthogonalLoop=1;jettySize=auto;html=1;exitX=1;exitY=0.5;exitDx=0;exitDy=0;entryX=0;entryY=0.5;entryDx=0;entryDy=0;" parent="1" source="B4ElUztjHzFX7PLNb7sK-21" target="B4ElUztjHzFX7PLNb7sK-40" edge="1">
          <mxGeometry relative="1" as="geometry">
            <Array as="points">
              <mxPoint x="840" y="500" />
              <mxPoint x="840" y="245" />
            </Array>
          </mxGeometry>
        </mxCell>
        <mxCell id="B4ElUztjHzFX7PLNb7sK-21" value="stat" style="ellipse;whiteSpace=wrap;html=1;aspect=fixed;fillColor=#fff2cc;strokeColor=#d6b656;" parent="1" vertex="1">
          <mxGeometry x="20" y="470" width="60" height="60" as="geometry" />
        </mxCell>
        <mxCell id="B4ElUztjHzFX7PLNb7sK-22" value="Proc" style="swimlane;whiteSpace=wrap;html=1;fillColor=#e1d5e7;strokeColor=#9673a6;" parent="1" vertex="1">
          <mxGeometry x="425" y="10" width="410" height="310" as="geometry" />
        </mxCell>
        <mxCell id="B4ElUztjHzFX7PLNb7sK-23" value="Preproc" style="swimlane;whiteSpace=wrap;html=1;fillColor=#ffe6cc;strokeColor=#d79b00;" parent="B4ElUztjHzFX7PLNb7sK-22" vertex="1">
          <mxGeometry x="15" y="40" width="105" height="90" as="geometry" />
        </mxCell>
        <mxCell id="B4ElUztjHzFX7PLNb7sK-24" value="preproc_native" style="rounded=1;whiteSpace=wrap;html=1;fillColor=#f8cecc;strokeColor=#b85450;" parent="B4ElUztjHzFX7PLNb7sK-23" vertex="1">
          <mxGeometry x="12.5" y="32.5" width="80" height="45" as="geometry" />
        </mxCell>
        <mxCell id="B4ElUztjHzFX7PLNb7sK-25" value="Maincomp" style="swimlane;whiteSpace=wrap;html=1;fillColor=#ffe6cc;strokeColor=#d79b00;" parent="B4ElUztjHzFX7PLNb7sK-22" vertex="1">
          <mxGeometry x="280" y="40" width="120" height="90" as="geometry" />
        </mxCell>
        <mxCell id="B4ElUztjHzFX7PLNb7sK-26" value="maincomp_native" style="rounded=1;whiteSpace=wrap;html=1;fillColor=#f8cecc;strokeColor=#b85450;" parent="B4ElUztjHzFX7PLNb7sK-25" vertex="1">
          <mxGeometry x="11.25" y="32.5" width="97.5" height="45" as="geometry" />
        </mxCell>
        <mxCell id="B4ElUztjHzFX7PLNb7sK-27" style="edgeStyle=orthogonalEdgeStyle;rounded=0;orthogonalLoop=1;jettySize=auto;html=1;exitX=1;exitY=0.5;exitDx=0;exitDy=0;entryX=0;entryY=0.5;entryDx=0;entryDy=0;" parent="B4ElUztjHzFX7PLNb7sK-22" source="B4ElUztjHzFX7PLNb7sK-24" target="B4ElUztjHzFX7PLNb7sK-26" edge="1">
          <mxGeometry relative="1" as="geometry" />
        </mxCell>
        <mxCell id="B4ElUztjHzFX7PLNb7sK-28" value="Lib.Probes.CounterProbe" style="swimlane;whiteSpace=wrap;html=1;dashed=1;" parent="B4ElUztjHzFX7PLNb7sK-22" vertex="1">
          <mxGeometry x="130" y="40" width="140" height="250" as="geometry" />
        </mxCell>
        <mxCell id="B4ElUztjHzFX7PLNb7sK-29" value="packet-cnt" style="swimlane;whiteSpace=wrap;html=1;fillColor=#ffe6cc;strokeColor=#d79b00;" parent="B4ElUztjHzFX7PLNb7sK-28" vertex="1">
          <mxGeometry x="40" y="80" width="84.5" height="70" as="geometry" />
        </mxCell>
        <mxCell id="B4ElUztjHzFX7PLNb7sK-30" value="_kern" style="rounded=1;whiteSpace=wrap;html=1;fillColor=#f8cecc;strokeColor=#b85450;" parent="B4ElUztjHzFX7PLNb7sK-29" vertex="1">
          <mxGeometry x="12.88" y="31.25" width="57.5" height="27.5" as="geometry" />
        </mxCell>
        <mxCell id="B4ElUztjHzFX7PLNb7sK-31" value="buffer-flush" style="swimlane;whiteSpace=wrap;html=1;fillColor=#ffe6cc;strokeColor=#d79b00;" parent="B4ElUztjHzFX7PLNb7sK-28" vertex="1">
          <mxGeometry x="40" y="170" width="84.5" height="70" as="geometry" />
        </mxCell>
        <mxCell id="B4ElUztjHzFX7PLNb7sK-32" value="_kern" style="rounded=1;whiteSpace=wrap;html=1;fillColor=#f8cecc;strokeColor=#b85450;" parent="B4ElUztjHzFX7PLNb7sK-31" vertex="1">
          <mxGeometry x="12.25" y="32.5" width="58.75" height="27.5" as="geometry" />
        </mxCell>
        <mxCell id="B4ElUztjHzFX7PLNb7sK-33" value="" style="endArrow=none;html=1;rounded=0;fillColor=#a20025;strokeColor=#6F0000;dashed=1;entryX=0.5;entryY=1;entryDx=0;entryDy=0;" parent="B4ElUztjHzFX7PLNb7sK-28" source="B4ElUztjHzFX7PLNb7sK-32" target="B4ElUztjHzFX7PLNb7sK-30" edge="1">
          <mxGeometry width="50" height="50" relative="1" as="geometry">
            <mxPoint x="130" y="100" as="sourcePoint" />
            <mxPoint x="180" y="50" as="targetPoint" />
          </mxGeometry>
        </mxCell>
        <mxCell id="B4ElUztjHzFX7PLNb7sK-34" value="&lt;font style=&quot;font-size: 8px;&quot;&gt;cnt_buff&lt;/font&gt;" style="edgeLabel;html=1;align=center;verticalAlign=middle;resizable=0;points=[];" parent="B4ElUztjHzFX7PLNb7sK-33" vertex="1" connectable="0">
          <mxGeometry x="0.4496" y="1" relative="1" as="geometry">
            <mxPoint x="27" y="4" as="offset" />
          </mxGeometry>
        </mxCell>
        <mxCell id="B4ElUztjHzFX7PLNb7sK-35" style="edgeStyle=orthogonalEdgeStyle;rounded=0;orthogonalLoop=1;jettySize=auto;html=1;exitX=1;exitY=0.5;exitDx=0;exitDy=0;entryX=0;entryY=0.5;entryDx=0;entryDy=0;" parent="B4ElUztjHzFX7PLNb7sK-22" source="B4ElUztjHzFX7PLNb7sK-24" target="B4ElUztjHzFX7PLNb7sK-30" edge="1">
          <mxGeometry relative="1" as="geometry">
            <Array as="points">
              <mxPoint x="150" y="95" />
              <mxPoint x="150" y="165" />
            </Array>
          </mxGeometry>
        </mxCell>
        <mxCell id="B4ElUztjHzFX7PLNb7sK-36" value="Sink" style="swimlane;whiteSpace=wrap;html=1;fillColor=#e1d5e7;strokeColor=#9673a6;startSize=23;" parent="1" vertex="1">
          <mxGeometry x="850" y="10" width="200" height="310" as="geometry" />
        </mxCell>
        <mxCell id="B4ElUztjHzFX7PLNb7sK-37" value="sink" style="swimlane;whiteSpace=wrap;html=1;fillColor=#ffe6cc;strokeColor=#d79b00;" parent="B4ElUztjHzFX7PLNb7sK-36" vertex="1">
          <mxGeometry x="17.5" y="40" width="155" height="85" as="geometry" />
        </mxCell>
        <mxCell id="B4ElUztjHzFX7PLNb7sK-38" value="&lt;div&gt;sink&lt;/div&gt;" style="rounded=1;whiteSpace=wrap;html=1;fillColor=#f8cecc;strokeColor=#b85450;" parent="B4ElUztjHzFX7PLNb7sK-37" vertex="1">
          <mxGeometry x="15" y="37.5" width="125" height="35" as="geometry" />
        </mxCell>
        <mxCell id="B4ElUztjHzFX7PLNb7sK-39" value="stat" style="swimlane;whiteSpace=wrap;html=1;fillColor=#ffe6cc;strokeColor=#d79b00;" parent="B4ElUztjHzFX7PLNb7sK-36" vertex="1">
          <mxGeometry x="17.5" y="180" width="155" height="85" as="geometry" />
        </mxCell>
        <mxCell id="B4ElUztjHzFX7PLNb7sK-40" value="stat" style="rounded=1;whiteSpace=wrap;html=1;fillColor=#f8cecc;strokeColor=#b85450;" parent="B4ElUztjHzFX7PLNb7sK-39" vertex="1">
          <mxGeometry x="15" y="37.5" width="125" height="35" as="geometry" />
        </mxCell>
        <mxCell id="B4ElUztjHzFX7PLNb7sK-41" style="edgeStyle=orthogonalEdgeStyle;rounded=0;orthogonalLoop=1;jettySize=auto;html=1;entryX=0.041;entryY=1.006;entryDx=0;entryDy=0;endArrow=none;endFill=0;dashed=1;fillColor=#a20025;strokeColor=#6F0000;strokeWidth=2;exitX=0.5;exitY=0;exitDx=0;exitDy=0;exitPerimeter=0;entryPerimeter=0;" parent="B4ElUztjHzFX7PLNb7sK-36" source="B4ElUztjHzFX7PLNb7sK-43" target="B4ElUztjHzFX7PLNb7sK-38" edge="1">
          <mxGeometry relative="1" as="geometry">
            <mxPoint x="40" y="150" as="sourcePoint" />
            <mxPoint x="40" y="120" as="targetPoint" />
            <Array as="points">
              <mxPoint x="38" y="150" />
            </Array>
          </mxGeometry>
        </mxCell>
        <mxCell id="B4ElUztjHzFX7PLNb7sK-42" value="inited" style="edgeLabel;html=1;align=center;verticalAlign=middle;resizable=0;points=[];fontSize=8;" parent="B4ElUztjHzFX7PLNb7sK-41" vertex="1" connectable="0">
          <mxGeometry x="-0.2198" relative="1" as="geometry">
            <mxPoint x="-17" y="2" as="offset" />
          </mxGeometry>
        </mxCell>
        <mxCell id="B4ElUztjHzFX7PLNb7sK-43" value="" style="pointerEvents=1;verticalLabelPosition=bottom;shadow=0;dashed=0;align=center;html=1;verticalAlign=top;shape=mxgraph.electrical.signal_sources.signal_ground;" parent="B4ElUztjHzFX7PLNb7sK-36" vertex="1">
          <mxGeometry x="30" y="150" width="20" height="20" as="geometry" />
        </mxCell>
        <mxCell id="B4ElUztjHzFX7PLNb7sK-44" style="edgeStyle=orthogonalEdgeStyle;rounded=0;orthogonalLoop=1;jettySize=auto;html=1;entryX=0.25;entryY=1;entryDx=0;entryDy=0;endArrow=none;endFill=0;dashed=1;fillColor=#a20025;strokeColor=#6F0000;strokeWidth=2;exitX=0.25;exitY=0;exitDx=0;exitDy=0;" parent="B4ElUztjHzFX7PLNb7sK-36" source="B4ElUztjHzFX7PLNb7sK-40" target="B4ElUztjHzFX7PLNb7sK-38" edge="1">
          <mxGeometry relative="1" as="geometry">
            <mxPoint x="50" y="160" as="sourcePoint" />
            <mxPoint x="50" y="130" as="targetPoint" />
            <Array as="points">
              <mxPoint x="64" y="170" />
              <mxPoint x="64" y="170" />
            </Array>
          </mxGeometry>
        </mxCell>
        <mxCell id="B4ElUztjHzFX7PLNb7sK-45" value="data_count" style="edgeLabel;html=1;align=center;verticalAlign=middle;resizable=0;points=[];fontSize=8;" parent="B4ElUztjHzFX7PLNb7sK-44" vertex="1" connectable="0">
          <mxGeometry x="-0.2198" relative="1" as="geometry">
            <mxPoint x="21" y="-24" as="offset" />
          </mxGeometry>
        </mxCell>
        <mxCell id="B4ElUztjHzFX7PLNb7sK-46" style="edgeStyle=orthogonalEdgeStyle;rounded=0;orthogonalLoop=1;jettySize=auto;html=1;entryX=0.75;entryY=1;entryDx=0;entryDy=0;endArrow=none;endFill=0;dashed=1;fillColor=#a20025;strokeColor=#6F0000;strokeWidth=2;exitX=0.75;exitY=0;exitDx=0;exitDy=0;" parent="B4ElUztjHzFX7PLNb7sK-36" source="B4ElUztjHzFX7PLNb7sK-40" target="B4ElUztjHzFX7PLNb7sK-38" edge="1">
          <mxGeometry relative="1" as="geometry">
            <mxPoint x="130" y="220" as="sourcePoint" />
            <mxPoint x="130" y="120" as="targetPoint" />
            <Array as="points">
              <mxPoint x="126" y="170" />
              <mxPoint x="126" y="170" />
            </Array>
          </mxGeometry>
        </mxCell>
        <mxCell id="B4ElUztjHzFX7PLNb7sK-47" value="packet_count" style="edgeLabel;html=1;align=center;verticalAlign=middle;resizable=0;points=[];fontSize=8;" parent="B4ElUztjHzFX7PLNb7sK-46" vertex="1" connectable="0">
          <mxGeometry x="-0.2198" relative="1" as="geometry">
            <mxPoint x="24" y="-24" as="offset" />
          </mxGeometry>
        </mxCell>
        <mxCell id="B4ElUztjHzFX7PLNb7sK-48" style="edgeStyle=orthogonalEdgeStyle;rounded=0;orthogonalLoop=1;jettySize=auto;html=1;endArrow=none;endFill=0;dashed=1;fillColor=#a20025;strokeColor=#6F0000;strokeWidth=2;exitX=0.5;exitY=0;exitDx=0;exitDy=0;exitPerimeter=0;entryX=0.218;entryY=1.03;entryDx=0;entryDy=0;entryPerimeter=0;" parent="B4ElUztjHzFX7PLNb7sK-36" source="B4ElUztjHzFX7PLNb7sK-50" edge="1">
          <mxGeometry relative="1" as="geometry">
            <mxPoint x="50" y="280" as="sourcePoint" />
            <mxPoint x="49.75" y="253.54999999999995" as="targetPoint" />
          </mxGeometry>
        </mxCell>
        <mxCell id="B4ElUztjHzFX7PLNb7sK-49" value="last_packet_count" style="edgeLabel;html=1;align=center;verticalAlign=middle;resizable=0;points=[];fontSize=8;" parent="B4ElUztjHzFX7PLNb7sK-48" vertex="1" connectable="0">
          <mxGeometry x="-0.2198" relative="1" as="geometry">
            <mxPoint x="-20" as="offset" />
          </mxGeometry>
        </mxCell>
        <mxCell id="B4ElUztjHzFX7PLNb7sK-50" value="" style="pointerEvents=1;verticalLabelPosition=bottom;shadow=0;dashed=0;align=center;html=1;verticalAlign=top;shape=mxgraph.electrical.signal_sources.signal_ground;" parent="B4ElUztjHzFX7PLNb7sK-36" vertex="1">
          <mxGeometry x="40" y="280" width="20" height="20" as="geometry" />
        </mxCell>
        <mxCell id="B4ElUztjHzFX7PLNb7sK-51" style="edgeStyle=orthogonalEdgeStyle;rounded=0;orthogonalLoop=1;jettySize=auto;html=1;endArrow=none;endFill=0;dashed=1;fillColor=#a20025;strokeColor=#6F0000;strokeWidth=2;exitX=0.5;exitY=0;exitDx=0;exitDy=0;exitPerimeter=0;entryX=0.218;entryY=1.03;entryDx=0;entryDy=0;entryPerimeter=0;" parent="B4ElUztjHzFX7PLNb7sK-36" source="B4ElUztjHzFX7PLNb7sK-53" edge="1">
          <mxGeometry relative="1" as="geometry">
            <mxPoint x="95" y="280" as="sourcePoint" />
            <mxPoint x="95" y="254" as="targetPoint" />
            <Array as="points">
              <mxPoint x="95" y="260" />
              <mxPoint x="95" y="260" />
            </Array>
          </mxGeometry>
        </mxCell>
        <mxCell id="B4ElUztjHzFX7PLNb7sK-52" value="last_data_count" style="edgeLabel;html=1;align=center;verticalAlign=middle;resizable=0;points=[];fontSize=8;" parent="B4ElUztjHzFX7PLNb7sK-51" vertex="1" connectable="0">
          <mxGeometry x="-0.2198" relative="1" as="geometry">
            <mxPoint y="10" as="offset" />
          </mxGeometry>
        </mxCell>
        <mxCell id="B4ElUztjHzFX7PLNb7sK-53" value="" style="pointerEvents=1;verticalLabelPosition=bottom;shadow=0;dashed=0;align=center;html=1;verticalAlign=top;shape=mxgraph.electrical.signal_sources.signal_ground;" parent="B4ElUztjHzFX7PLNb7sK-36" vertex="1">
          <mxGeometry x="85" y="280" width="20" height="20" as="geometry" />
        </mxCell>
        <mxCell id="B4ElUztjHzFX7PLNb7sK-54" style="edgeStyle=orthogonalEdgeStyle;rounded=0;orthogonalLoop=1;jettySize=auto;html=1;endArrow=none;endFill=0;dashed=1;fillColor=#a20025;strokeColor=#6F0000;strokeWidth=2;exitX=0.5;exitY=0;exitDx=0;exitDy=0;exitPerimeter=0;entryX=0.218;entryY=1.03;entryDx=0;entryDy=0;entryPerimeter=0;" parent="B4ElUztjHzFX7PLNb7sK-36" source="B4ElUztjHzFX7PLNb7sK-56" edge="1">
          <mxGeometry relative="1" as="geometry">
            <mxPoint x="140" y="280" as="sourcePoint" />
            <mxPoint x="140" y="254" as="targetPoint" />
            <Array as="points">
              <mxPoint x="140.5" y="270" />
              <mxPoint x="140.5" y="270" />
            </Array>
          </mxGeometry>
        </mxCell>
        <mxCell id="B4ElUztjHzFX7PLNb7sK-55" value="last_time" style="edgeLabel;html=1;align=center;verticalAlign=middle;resizable=0;points=[];fontSize=8;" parent="B4ElUztjHzFX7PLNb7sK-54" vertex="1" connectable="0">
          <mxGeometry x="-0.2198" relative="1" as="geometry">
            <mxPoint x="18" as="offset" />
          </mxGeometry>
        </mxCell>
        <mxCell id="B4ElUztjHzFX7PLNb7sK-56" value="" style="pointerEvents=1;verticalLabelPosition=bottom;shadow=0;dashed=0;align=center;html=1;verticalAlign=top;shape=mxgraph.electrical.signal_sources.signal_ground;" parent="B4ElUztjHzFX7PLNb7sK-36" vertex="1">
          <mxGeometry x="130" y="280" width="20" height="20" as="geometry" />
        </mxCell>
        <mxCell id="B4ElUztjHzFX7PLNb7sK-57" style="edgeStyle=orthogonalEdgeStyle;rounded=0;orthogonalLoop=1;jettySize=auto;html=1;exitX=1;exitY=0.5;exitDx=0;exitDy=0;entryX=0;entryY=0.5;entryDx=0;entryDy=0;" parent="1" source="B4ElUztjHzFX7PLNb7sK-26" target="B4ElUztjHzFX7PLNb7sK-38" edge="1">
          <mxGeometry relative="1" as="geometry" />
        </mxCell>
        <mxCell id="B4ElUztjHzFX7PLNb7sK-58" style="edgeStyle=orthogonalEdgeStyle;rounded=0;orthogonalLoop=1;jettySize=auto;html=1;exitX=1;exitY=0.5;exitDx=0;exitDy=0;entryX=0;entryY=0.5;entryDx=0;entryDy=0;" parent="1" source="B4ElUztjHzFX7PLNb7sK-6" target="B4ElUztjHzFX7PLNb7sK-24" edge="1">
          <mxGeometry relative="1" as="geometry" />
        </mxCell>
        <mxCell id="B4ElUztjHzFX7PLNb7sK-59" value="Lib.Probes.CounterStat" style="swimlane;whiteSpace=wrap;html=1;fillColor=#e1d5e7;strokeColor=#9673a6;" parent="1" vertex="1">
          <mxGeometry x="120" y="340" width="250" height="130" as="geometry" />
        </mxCell>
        <mxCell id="B4ElUztjHzFX7PLNb7sK-60" value="Flush" style="swimlane;whiteSpace=wrap;html=1;fillColor=#ffe6cc;strokeColor=#d79b00;" parent="B4ElUztjHzFX7PLNb7sK-59" vertex="1">
          <mxGeometry x="30" y="35" width="70" height="80" as="geometry" />
        </mxCell>
        <mxCell id="B4ElUztjHzFX7PLNb7sK-61" value="flush" style="rounded=1;whiteSpace=wrap;html=1;fillColor=#f8cecc;strokeColor=#b85450;" parent="B4ElUztjHzFX7PLNb7sK-60" vertex="1">
          <mxGeometry x="13" y="30" width="44" height="40" as="geometry" />
        </mxCell>
        <mxCell id="B4ElUztjHzFX7PLNb7sK-62" value="StatPrint" style="swimlane;whiteSpace=wrap;html=1;fillColor=#ffe6cc;strokeColor=#d79b00;" parent="B4ElUztjHzFX7PLNb7sK-59" vertex="1">
          <mxGeometry x="160" y="40" width="70" height="70" as="geometry" />
        </mxCell>
        <mxCell id="B4ElUztjHzFX7PLNb7sK-63" value="stats" style="rounded=1;whiteSpace=wrap;html=1;fillColor=#f8cecc;strokeColor=#b85450;" parent="B4ElUztjHzFX7PLNb7sK-62" vertex="1">
          <mxGeometry x="12.25" y="32.5" width="47.75" height="27.5" as="geometry" />
        </mxCell>
        <mxCell id="B4ElUztjHzFX7PLNb7sK-64" value="" style="group" parent="B4ElUztjHzFX7PLNb7sK-59" vertex="1" connectable="0">
          <mxGeometry x="15" y="71.25" width="14" height="11" as="geometry" />
        </mxCell>
        <mxCell id="B4ElUztjHzFX7PLNb7sK-65" value="" style="ellipse;whiteSpace=wrap;html=1;aspect=fixed;" parent="B4ElUztjHzFX7PLNb7sK-64" vertex="1">
          <mxGeometry y="1" width="9" height="9" as="geometry" />
        </mxCell>
        <mxCell id="B4ElUztjHzFX7PLNb7sK-66" value="" style="rounded=0;whiteSpace=wrap;html=1;strokeColor=none;" parent="B4ElUztjHzFX7PLNb7sK-64" vertex="1">
          <mxGeometry x="4" width="10" height="11" as="geometry" />
        </mxCell>
        <mxCell id="B4ElUztjHzFX7PLNb7sK-67" style="edgeStyle=orthogonalEdgeStyle;rounded=0;orthogonalLoop=1;jettySize=auto;html=1;exitX=0.5;exitY=1;exitDx=0;exitDy=0;entryX=0;entryY=0.5;entryDx=0;entryDy=0;endArrow=none;endFill=0;" parent="B4ElUztjHzFX7PLNb7sK-59" source="B4ElUztjHzFX7PLNb7sK-65" target="B4ElUztjHzFX7PLNb7sK-61" edge="1">
          <mxGeometry relative="1" as="geometry">
            <Array as="points">
              <mxPoint x="20" y="85" />
            </Array>
          </mxGeometry>
        </mxCell>
        <mxCell id="B4ElUztjHzFX7PLNb7sK-68" style="edgeStyle=orthogonalEdgeStyle;rounded=0;orthogonalLoop=1;jettySize=auto;html=1;entryX=1;entryY=0.5;entryDx=0;entryDy=0;exitX=0.5;exitY=1;exitDx=0;exitDy=0;" parent="1" source="B4ElUztjHzFX7PLNb7sK-2" target="B4ElUztjHzFX7PLNb7sK-63" edge="1">
          <mxGeometry relative="1" as="geometry">
            <mxPoint x="410" y="340" as="sourcePoint" />
            <Array as="points">
              <mxPoint x="410" y="370" />
              <mxPoint x="410" y="370" />
              <mxPoint x="410" y="426" />
            </Array>
          </mxGeometry>
        </mxCell>
        <mxCell id="B4ElUztjHzFX7PLNb7sK-69" style="edgeStyle=orthogonalEdgeStyle;rounded=0;orthogonalLoop=1;jettySize=auto;html=1;exitX=1;exitY=0.5;exitDx=0;exitDy=0;entryX=1;entryY=0.5;entryDx=0;entryDy=0;" parent="1" source="B4ElUztjHzFX7PLNb7sK-32" target="B4ElUztjHzFX7PLNb7sK-63" edge="1">
          <mxGeometry relative="1" as="geometry">
            <Array as="points">
              <mxPoint x="710" y="266" />
              <mxPoint x="710" y="426" />
            </Array>
          </mxGeometry>
        </mxCell>
        <mxCell id="B4ElUztjHzFX7PLNb7sK-70" style="edgeStyle=orthogonalEdgeStyle;rounded=0;orthogonalLoop=1;jettySize=auto;html=1;exitX=0;exitY=0.25;exitDx=0;exitDy=0;entryX=0;entryY=0.5;entryDx=0;entryDy=0;" parent="1" source="B4ElUztjHzFX7PLNb7sK-61" target="B4ElUztjHzFX7PLNb7sK-14" edge="1">
          <mxGeometry relative="1" as="geometry">
            <Array as="points">
              <mxPoint x="110" y="415" />
              <mxPoint x="110" y="266" />
            </Array>
          </mxGeometry>
        </mxCell>
        <mxCell id="B4ElUztjHzFX7PLNb7sK-71" style="edgeStyle=orthogonalEdgeStyle;rounded=0;orthogonalLoop=1;jettySize=auto;html=1;entryX=0;entryY=0.5;entryDx=0;entryDy=0;exitX=0.5;exitY=0;exitDx=0;exitDy=0;" parent="1" source="B4ElUztjHzFX7PLNb7sK-65" target="B4ElUztjHzFX7PLNb7sK-32" edge="1">
          <mxGeometry relative="1" as="geometry">
            <mxPoint x="130" y="395" as="sourcePoint" />
            <Array as="points">
              <mxPoint x="140" y="410" />
              <mxPoint x="140" y="410" />
              <mxPoint x="140" y="330" />
              <mxPoint x="510" y="330" />
              <mxPoint x="510" y="266" />
            </Array>
          </mxGeometry>
        </mxCell>
        <mxCell id="B4ElUztjHzFX7PLNb7sK-72" style="edgeStyle=orthogonalEdgeStyle;rounded=0;orthogonalLoop=1;jettySize=auto;html=1;exitX=0.5;exitY=0;exitDx=0;exitDy=0;entryX=1;entryY=0.5;entryDx=0;entryDy=0;endArrow=none;endFill=0;" parent="1" source="B4ElUztjHzFX7PLNb7sK-2" target="B4ElUztjHzFX7PLNb7sK-14" edge="1">
          <mxGeometry relative="1" as="geometry">
            <mxPoint x="410" y="270" as="targetPoint" />
          </mxGeometry>
        </mxCell>
        <mxCell id="B4ElUztjHzFX7PLNb7sK-73" style="edgeStyle=orthogonalEdgeStyle;rounded=0;orthogonalLoop=1;jettySize=auto;html=1;exitX=1;exitY=0.5;exitDx=0;exitDy=0;entryX=0;entryY=0.75;entryDx=0;entryDy=0;" parent="1" source="B4ElUztjHzFX7PLNb7sK-74" target="B4ElUztjHzFX7PLNb7sK-61" edge="1">
          <mxGeometry relative="1" as="geometry">
            <Array as="points">
              <mxPoint x="80" y="435" />
            </Array>
          </mxGeometry>
        </mxCell>
        <mxCell id="B4ElUztjHzFX7PLNb7sK-74" value="flush" style="ellipse;whiteSpace=wrap;html=1;aspect=fixed;fillColor=#fff2cc;strokeColor=#d6b656;" parent="1" vertex="1">
          <mxGeometry x="20" y="400" width="60" height="60" as="geometry" />
        </mxCell>
      </root>
    </mxGraphModel>
  </diagram>
  <diagram id="NeWZb8GRpLPZ-rDL5K18" name="pc-prob-col">
    <mxGraphModel dx="793" dy="1087" grid="1" gridSize="10" guides="1" tooltips="1" connect="1" arrows="1" fold="1" page="1" pageScale="1" pageWidth="850" pageHeight="1100" math="0" shadow="0">
      <root>
        <mxCell id="0" />
        <mxCell id="1" parent="0" />
        <mxCell id="jaC2uAde1-oLMsCmyeUN-1" value="" style="group" parent="1" vertex="1" connectable="0">
          <mxGeometry x="405" y="325" width="14" height="11" as="geometry" />
        </mxCell>
        <mxCell id="jaC2uAde1-oLMsCmyeUN-2" value="" style="ellipse;whiteSpace=wrap;html=1;aspect=fixed;" parent="jaC2uAde1-oLMsCmyeUN-1" vertex="1">
          <mxGeometry y="1" width="9" height="9" as="geometry" />
        </mxCell>
        <mxCell id="jaC2uAde1-oLMsCmyeUN-3" value="" style="rounded=0;whiteSpace=wrap;html=1;strokeColor=none;strokeOpacity=100;" parent="1" vertex="1">
          <mxGeometry x="409" y="325" width="10" height="11" as="geometry" />
        </mxCell>
        <mxCell id="jaC2uAde1-oLMsCmyeUN-4" value="Src" style="swimlane;whiteSpace=wrap;html=1;fillColor=#e1d5e7;strokeColor=#9673a6;" parent="1" vertex="1">
          <mxGeometry x="100" y="10" width="300" height="310" as="geometry" />
        </mxCell>
        <mxCell id="jaC2uAde1-oLMsCmyeUN-5" value="Src" style="swimlane;whiteSpace=wrap;html=1;fillColor=#ffe6cc;strokeColor=#d79b00;" parent="jaC2uAde1-oLMsCmyeUN-4" vertex="1">
          <mxGeometry x="20" y="40" width="110" height="90" as="geometry" />
        </mxCell>
        <mxCell id="jaC2uAde1-oLMsCmyeUN-6" value="src_native" style="rounded=1;whiteSpace=wrap;html=1;fillColor=#f8cecc;strokeColor=#b85450;" parent="jaC2uAde1-oLMsCmyeUN-5" vertex="1">
          <mxGeometry x="17.5" y="32.5" width="75" height="45" as="geometry" />
        </mxCell>
        <mxCell id="jaC2uAde1-oLMsCmyeUN-7" style="edgeStyle=orthogonalEdgeStyle;rounded=0;orthogonalLoop=1;jettySize=auto;html=1;exitX=0.5;exitY=0;exitDx=0;exitDy=0;exitPerimeter=0;entryX=0.5;entryY=1;entryDx=0;entryDy=0;endArrow=none;endFill=0;dashed=1;fillColor=#a20025;strokeColor=#6F0000;strokeWidth=2;" parent="jaC2uAde1-oLMsCmyeUN-4" source="jaC2uAde1-oLMsCmyeUN-9" target="jaC2uAde1-oLMsCmyeUN-6" edge="1">
          <mxGeometry relative="1" as="geometry" />
        </mxCell>
        <mxCell id="jaC2uAde1-oLMsCmyeUN-8" value="predef_data" style="edgeLabel;html=1;align=center;verticalAlign=middle;resizable=0;points=[];fontSize=8;" parent="jaC2uAde1-oLMsCmyeUN-7" vertex="1" connectable="0">
          <mxGeometry x="-0.2198" relative="1" as="geometry">
            <mxPoint x="25" y="6" as="offset" />
          </mxGeometry>
        </mxCell>
        <mxCell id="jaC2uAde1-oLMsCmyeUN-9" value="" style="pointerEvents=1;verticalLabelPosition=bottom;shadow=0;dashed=0;align=center;html=1;verticalAlign=top;shape=mxgraph.electrical.signal_sources.signal_ground;" parent="jaC2uAde1-oLMsCmyeUN-4" vertex="1">
          <mxGeometry x="65" y="140" width="20" height="20" as="geometry" />
        </mxCell>
        <mxCell id="jaC2uAde1-oLMsCmyeUN-10" value="Lib.Probes.CounterProbe" style="swimlane;whiteSpace=wrap;html=1;dashed=1;" parent="jaC2uAde1-oLMsCmyeUN-4" vertex="1" collapsed="1">
          <mxGeometry x="100" y="185" width="185" height="30" as="geometry">
            <mxRectangle x="150" y="40" width="140" height="250" as="alternateBounds" />
          </mxGeometry>
        </mxCell>
        <mxCell id="jaC2uAde1-oLMsCmyeUN-11" value="packet-cnt" style="swimlane;whiteSpace=wrap;html=1;fillColor=#ffe6cc;strokeColor=#d79b00;" parent="jaC2uAde1-oLMsCmyeUN-10" vertex="1">
          <mxGeometry x="40" y="80" width="84.5" height="70" as="geometry" />
        </mxCell>
        <mxCell id="jaC2uAde1-oLMsCmyeUN-12" value="_kern" style="rounded=1;whiteSpace=wrap;html=1;fillColor=#f8cecc;strokeColor=#b85450;" parent="jaC2uAde1-oLMsCmyeUN-11" vertex="1">
          <mxGeometry x="12.88" y="31.25" width="57.5" height="27.5" as="geometry" />
        </mxCell>
        <mxCell id="jaC2uAde1-oLMsCmyeUN-13" value="buffer-flush" style="swimlane;whiteSpace=wrap;html=1;fillColor=#ffe6cc;strokeColor=#d79b00;" parent="jaC2uAde1-oLMsCmyeUN-10" vertex="1">
          <mxGeometry x="40" y="170" width="84.5" height="70" as="geometry" />
        </mxCell>
        <mxCell id="jaC2uAde1-oLMsCmyeUN-14" value="_kern" style="rounded=1;whiteSpace=wrap;html=1;fillColor=#f8cecc;strokeColor=#b85450;" parent="jaC2uAde1-oLMsCmyeUN-13" vertex="1">
          <mxGeometry x="12.25" y="32.5" width="58.75" height="27.5" as="geometry" />
        </mxCell>
        <mxCell id="jaC2uAde1-oLMsCmyeUN-15" value="" style="endArrow=none;html=1;rounded=0;fillColor=#a20025;strokeColor=#6F0000;dashed=1;entryX=0.5;entryY=1;entryDx=0;entryDy=0;" parent="jaC2uAde1-oLMsCmyeUN-10" source="jaC2uAde1-oLMsCmyeUN-14" target="jaC2uAde1-oLMsCmyeUN-12" edge="1">
          <mxGeometry width="50" height="50" relative="1" as="geometry">
            <mxPoint x="130" y="100" as="sourcePoint" />
            <mxPoint x="180" y="50" as="targetPoint" />
          </mxGeometry>
        </mxCell>
        <mxCell id="jaC2uAde1-oLMsCmyeUN-16" value="&lt;font style=&quot;font-size: 8px;&quot;&gt;cnt_buff&lt;/font&gt;" style="edgeLabel;html=1;align=center;verticalAlign=middle;resizable=0;points=[];" parent="jaC2uAde1-oLMsCmyeUN-15" vertex="1" connectable="0">
          <mxGeometry x="0.4496" y="1" relative="1" as="geometry">
            <mxPoint x="27" y="4" as="offset" />
          </mxGeometry>
        </mxCell>
        <mxCell id="jaC2uAde1-oLMsCmyeUN-17" style="edgeStyle=orthogonalEdgeStyle;rounded=0;orthogonalLoop=1;jettySize=auto;html=1;exitX=1;exitY=0.5;exitDx=0;exitDy=0;" parent="jaC2uAde1-oLMsCmyeUN-4" source="jaC2uAde1-oLMsCmyeUN-6" edge="1">
          <mxGeometry relative="1" as="geometry">
            <mxPoint x="190" y="185" as="targetPoint" />
            <Array as="points">
              <mxPoint x="190" y="95" />
              <mxPoint x="190" y="185" />
            </Array>
          </mxGeometry>
        </mxCell>
        <mxCell id="jaC2uAde1-oLMsCmyeUN-18" style="edgeStyle=orthogonalEdgeStyle;rounded=0;orthogonalLoop=1;jettySize=auto;html=1;exitX=1;exitY=0.5;exitDx=0;exitDy=0;entryX=0;entryY=0.5;entryDx=0;entryDy=0;" parent="1" source="jaC2uAde1-oLMsCmyeUN-19" target="jaC2uAde1-oLMsCmyeUN-6" edge="1">
          <mxGeometry relative="1" as="geometry" />
        </mxCell>
        <mxCell id="jaC2uAde1-oLMsCmyeUN-19" value="trig" style="ellipse;whiteSpace=wrap;html=1;aspect=fixed;fillColor=#fff2cc;strokeColor=#d6b656;" parent="1" vertex="1">
          <mxGeometry x="10" y="75" width="60" height="60" as="geometry" />
        </mxCell>
        <mxCell id="jaC2uAde1-oLMsCmyeUN-20" style="edgeStyle=orthogonalEdgeStyle;rounded=0;orthogonalLoop=1;jettySize=auto;html=1;exitX=1;exitY=0.5;exitDx=0;exitDy=0;entryX=0;entryY=0.5;entryDx=0;entryDy=0;" parent="1" source="jaC2uAde1-oLMsCmyeUN-21" target="jaC2uAde1-oLMsCmyeUN-40" edge="1">
          <mxGeometry relative="1" as="geometry">
            <Array as="points">
              <mxPoint x="840" y="500" />
              <mxPoint x="840" y="245" />
            </Array>
          </mxGeometry>
        </mxCell>
        <mxCell id="jaC2uAde1-oLMsCmyeUN-21" value="stat" style="ellipse;whiteSpace=wrap;html=1;aspect=fixed;fillColor=#fff2cc;strokeColor=#d6b656;" parent="1" vertex="1">
          <mxGeometry x="20" y="470" width="60" height="60" as="geometry" />
        </mxCell>
        <mxCell id="jaC2uAde1-oLMsCmyeUN-22" value="Proc" style="swimlane;whiteSpace=wrap;html=1;fillColor=#e1d5e7;strokeColor=#9673a6;" parent="1" vertex="1">
          <mxGeometry x="425" y="10" width="410" height="310" as="geometry" />
        </mxCell>
        <mxCell id="jaC2uAde1-oLMsCmyeUN-23" value="Preproc" style="swimlane;whiteSpace=wrap;html=1;fillColor=#ffe6cc;strokeColor=#d79b00;" parent="jaC2uAde1-oLMsCmyeUN-22" vertex="1">
          <mxGeometry x="15" y="40" width="105" height="90" as="geometry" />
        </mxCell>
        <mxCell id="jaC2uAde1-oLMsCmyeUN-24" value="preproc_native" style="rounded=1;whiteSpace=wrap;html=1;fillColor=#f8cecc;strokeColor=#b85450;" parent="jaC2uAde1-oLMsCmyeUN-23" vertex="1">
          <mxGeometry x="12.5" y="32.5" width="80" height="45" as="geometry" />
        </mxCell>
        <mxCell id="jaC2uAde1-oLMsCmyeUN-25" value="Maincomp" style="swimlane;whiteSpace=wrap;html=1;fillColor=#ffe6cc;strokeColor=#d79b00;" parent="jaC2uAde1-oLMsCmyeUN-22" vertex="1">
          <mxGeometry x="280" y="40" width="120" height="90" as="geometry" />
        </mxCell>
        <mxCell id="jaC2uAde1-oLMsCmyeUN-26" value="maincomp_native" style="rounded=1;whiteSpace=wrap;html=1;fillColor=#f8cecc;strokeColor=#b85450;" parent="jaC2uAde1-oLMsCmyeUN-25" vertex="1">
          <mxGeometry x="11.25" y="32.5" width="97.5" height="45" as="geometry" />
        </mxCell>
        <mxCell id="jaC2uAde1-oLMsCmyeUN-27" style="edgeStyle=orthogonalEdgeStyle;rounded=0;orthogonalLoop=1;jettySize=auto;html=1;exitX=1;exitY=0.5;exitDx=0;exitDy=0;entryX=0;entryY=0.5;entryDx=0;entryDy=0;" parent="jaC2uAde1-oLMsCmyeUN-22" source="jaC2uAde1-oLMsCmyeUN-24" target="jaC2uAde1-oLMsCmyeUN-26" edge="1">
          <mxGeometry relative="1" as="geometry" />
        </mxCell>
        <mxCell id="jaC2uAde1-oLMsCmyeUN-28" value="Lib.Probes.CounterProbe" style="swimlane;whiteSpace=wrap;html=1;dashed=1;" parent="jaC2uAde1-oLMsCmyeUN-22" vertex="1" collapsed="1">
          <mxGeometry x="150" y="185" width="185" height="30" as="geometry">
            <mxRectangle x="130" y="40" width="140" height="250" as="alternateBounds" />
          </mxGeometry>
        </mxCell>
        <mxCell id="jaC2uAde1-oLMsCmyeUN-29" value="packet-cnt" style="swimlane;whiteSpace=wrap;html=1;fillColor=#ffe6cc;strokeColor=#d79b00;" parent="jaC2uAde1-oLMsCmyeUN-28" vertex="1">
          <mxGeometry x="40" y="80" width="84.5" height="70" as="geometry" />
        </mxCell>
        <mxCell id="jaC2uAde1-oLMsCmyeUN-30" value="_kern" style="rounded=1;whiteSpace=wrap;html=1;fillColor=#f8cecc;strokeColor=#b85450;" parent="jaC2uAde1-oLMsCmyeUN-29" vertex="1">
          <mxGeometry x="12.88" y="31.25" width="57.5" height="27.5" as="geometry" />
        </mxCell>
        <mxCell id="jaC2uAde1-oLMsCmyeUN-31" value="buffer-flush" style="swimlane;whiteSpace=wrap;html=1;fillColor=#ffe6cc;strokeColor=#d79b00;" parent="jaC2uAde1-oLMsCmyeUN-28" vertex="1">
          <mxGeometry x="40" y="170" width="84.5" height="70" as="geometry" />
        </mxCell>
        <mxCell id="jaC2uAde1-oLMsCmyeUN-32" value="_kern" style="rounded=1;whiteSpace=wrap;html=1;fillColor=#f8cecc;strokeColor=#b85450;" parent="jaC2uAde1-oLMsCmyeUN-31" vertex="1">
          <mxGeometry x="12.25" y="32.5" width="58.75" height="27.5" as="geometry" />
        </mxCell>
        <mxCell id="jaC2uAde1-oLMsCmyeUN-33" value="" style="endArrow=none;html=1;rounded=0;fillColor=#a20025;strokeColor=#6F0000;dashed=1;entryX=0.5;entryY=1;entryDx=0;entryDy=0;" parent="jaC2uAde1-oLMsCmyeUN-28" source="jaC2uAde1-oLMsCmyeUN-32" target="jaC2uAde1-oLMsCmyeUN-30" edge="1">
          <mxGeometry width="50" height="50" relative="1" as="geometry">
            <mxPoint x="130" y="100" as="sourcePoint" />
            <mxPoint x="180" y="50" as="targetPoint" />
          </mxGeometry>
        </mxCell>
        <mxCell id="jaC2uAde1-oLMsCmyeUN-34" value="&lt;font style=&quot;font-size: 8px;&quot;&gt;cnt_buff&lt;/font&gt;" style="edgeLabel;html=1;align=center;verticalAlign=middle;resizable=0;points=[];" parent="jaC2uAde1-oLMsCmyeUN-33" vertex="1" connectable="0">
          <mxGeometry x="0.4496" y="1" relative="1" as="geometry">
            <mxPoint x="27" y="4" as="offset" />
          </mxGeometry>
        </mxCell>
        <mxCell id="jaC2uAde1-oLMsCmyeUN-35" style="edgeStyle=orthogonalEdgeStyle;rounded=0;orthogonalLoop=1;jettySize=auto;html=1;exitX=1;exitY=0.5;exitDx=0;exitDy=0;" parent="jaC2uAde1-oLMsCmyeUN-22" source="jaC2uAde1-oLMsCmyeUN-24" target="jaC2uAde1-oLMsCmyeUN-28" edge="1">
          <mxGeometry relative="1" as="geometry">
            <Array as="points">
              <mxPoint x="235" y="95" />
            </Array>
          </mxGeometry>
        </mxCell>
        <mxCell id="jaC2uAde1-oLMsCmyeUN-36" value="Sink" style="swimlane;whiteSpace=wrap;html=1;fillColor=#e1d5e7;strokeColor=#9673a6;startSize=23;" parent="1" vertex="1">
          <mxGeometry x="850" y="10" width="200" height="310" as="geometry" />
        </mxCell>
        <mxCell id="jaC2uAde1-oLMsCmyeUN-37" value="sink" style="swimlane;whiteSpace=wrap;html=1;fillColor=#ffe6cc;strokeColor=#d79b00;" parent="jaC2uAde1-oLMsCmyeUN-36" vertex="1">
          <mxGeometry x="17.5" y="40" width="155" height="85" as="geometry" />
        </mxCell>
        <mxCell id="jaC2uAde1-oLMsCmyeUN-38" value="&lt;div&gt;sink&lt;/div&gt;" style="rounded=1;whiteSpace=wrap;html=1;fillColor=#f8cecc;strokeColor=#b85450;" parent="jaC2uAde1-oLMsCmyeUN-37" vertex="1">
          <mxGeometry x="15" y="37.5" width="125" height="35" as="geometry" />
        </mxCell>
        <mxCell id="jaC2uAde1-oLMsCmyeUN-39" value="stat" style="swimlane;whiteSpace=wrap;html=1;fillColor=#ffe6cc;strokeColor=#d79b00;" parent="jaC2uAde1-oLMsCmyeUN-36" vertex="1">
          <mxGeometry x="17.5" y="180" width="155" height="85" as="geometry" />
        </mxCell>
        <mxCell id="jaC2uAde1-oLMsCmyeUN-40" value="stat" style="rounded=1;whiteSpace=wrap;html=1;fillColor=#f8cecc;strokeColor=#b85450;" parent="jaC2uAde1-oLMsCmyeUN-39" vertex="1">
          <mxGeometry x="15" y="37.5" width="125" height="35" as="geometry" />
        </mxCell>
        <mxCell id="jaC2uAde1-oLMsCmyeUN-41" style="edgeStyle=orthogonalEdgeStyle;rounded=0;orthogonalLoop=1;jettySize=auto;html=1;entryX=0.041;entryY=1.006;entryDx=0;entryDy=0;endArrow=none;endFill=0;dashed=1;fillColor=#a20025;strokeColor=#6F0000;strokeWidth=2;exitX=0.5;exitY=0;exitDx=0;exitDy=0;exitPerimeter=0;entryPerimeter=0;" parent="jaC2uAde1-oLMsCmyeUN-36" source="jaC2uAde1-oLMsCmyeUN-43" target="jaC2uAde1-oLMsCmyeUN-38" edge="1">
          <mxGeometry relative="1" as="geometry">
            <mxPoint x="40" y="150" as="sourcePoint" />
            <mxPoint x="40" y="120" as="targetPoint" />
            <Array as="points">
              <mxPoint x="38" y="150" />
            </Array>
          </mxGeometry>
        </mxCell>
        <mxCell id="jaC2uAde1-oLMsCmyeUN-42" value="inited" style="edgeLabel;html=1;align=center;verticalAlign=middle;resizable=0;points=[];fontSize=8;" parent="jaC2uAde1-oLMsCmyeUN-41" vertex="1" connectable="0">
          <mxGeometry x="-0.2198" relative="1" as="geometry">
            <mxPoint x="-17" y="2" as="offset" />
          </mxGeometry>
        </mxCell>
        <mxCell id="jaC2uAde1-oLMsCmyeUN-43" value="" style="pointerEvents=1;verticalLabelPosition=bottom;shadow=0;dashed=0;align=center;html=1;verticalAlign=top;shape=mxgraph.electrical.signal_sources.signal_ground;" parent="jaC2uAde1-oLMsCmyeUN-36" vertex="1">
          <mxGeometry x="30" y="150" width="20" height="20" as="geometry" />
        </mxCell>
        <mxCell id="jaC2uAde1-oLMsCmyeUN-44" style="edgeStyle=orthogonalEdgeStyle;rounded=0;orthogonalLoop=1;jettySize=auto;html=1;entryX=0.25;entryY=1;entryDx=0;entryDy=0;endArrow=none;endFill=0;dashed=1;fillColor=#a20025;strokeColor=#6F0000;strokeWidth=2;exitX=0.25;exitY=0;exitDx=0;exitDy=0;" parent="jaC2uAde1-oLMsCmyeUN-36" source="jaC2uAde1-oLMsCmyeUN-40" target="jaC2uAde1-oLMsCmyeUN-38" edge="1">
          <mxGeometry relative="1" as="geometry">
            <mxPoint x="50" y="160" as="sourcePoint" />
            <mxPoint x="50" y="130" as="targetPoint" />
            <Array as="points">
              <mxPoint x="64" y="170" />
              <mxPoint x="64" y="170" />
            </Array>
          </mxGeometry>
        </mxCell>
        <mxCell id="jaC2uAde1-oLMsCmyeUN-45" value="data_count" style="edgeLabel;html=1;align=center;verticalAlign=middle;resizable=0;points=[];fontSize=8;" parent="jaC2uAde1-oLMsCmyeUN-44" vertex="1" connectable="0">
          <mxGeometry x="-0.2198" relative="1" as="geometry">
            <mxPoint x="21" y="-24" as="offset" />
          </mxGeometry>
        </mxCell>
        <mxCell id="jaC2uAde1-oLMsCmyeUN-46" style="edgeStyle=orthogonalEdgeStyle;rounded=0;orthogonalLoop=1;jettySize=auto;html=1;entryX=0.75;entryY=1;entryDx=0;entryDy=0;endArrow=none;endFill=0;dashed=1;fillColor=#a20025;strokeColor=#6F0000;strokeWidth=2;exitX=0.75;exitY=0;exitDx=0;exitDy=0;" parent="jaC2uAde1-oLMsCmyeUN-36" source="jaC2uAde1-oLMsCmyeUN-40" target="jaC2uAde1-oLMsCmyeUN-38" edge="1">
          <mxGeometry relative="1" as="geometry">
            <mxPoint x="130" y="220" as="sourcePoint" />
            <mxPoint x="130" y="120" as="targetPoint" />
            <Array as="points">
              <mxPoint x="126" y="170" />
              <mxPoint x="126" y="170" />
            </Array>
          </mxGeometry>
        </mxCell>
        <mxCell id="jaC2uAde1-oLMsCmyeUN-47" value="packet_count" style="edgeLabel;html=1;align=center;verticalAlign=middle;resizable=0;points=[];fontSize=8;" parent="jaC2uAde1-oLMsCmyeUN-46" vertex="1" connectable="0">
          <mxGeometry x="-0.2198" relative="1" as="geometry">
            <mxPoint x="24" y="-24" as="offset" />
          </mxGeometry>
        </mxCell>
        <mxCell id="jaC2uAde1-oLMsCmyeUN-48" style="edgeStyle=orthogonalEdgeStyle;rounded=0;orthogonalLoop=1;jettySize=auto;html=1;endArrow=none;endFill=0;dashed=1;fillColor=#a20025;strokeColor=#6F0000;strokeWidth=2;exitX=0.5;exitY=0;exitDx=0;exitDy=0;exitPerimeter=0;entryX=0.218;entryY=1.03;entryDx=0;entryDy=0;entryPerimeter=0;" parent="jaC2uAde1-oLMsCmyeUN-36" source="jaC2uAde1-oLMsCmyeUN-50" edge="1">
          <mxGeometry relative="1" as="geometry">
            <mxPoint x="50" y="280" as="sourcePoint" />
            <mxPoint x="49.75" y="253.54999999999995" as="targetPoint" />
          </mxGeometry>
        </mxCell>
        <mxCell id="jaC2uAde1-oLMsCmyeUN-49" value="last_packet_count" style="edgeLabel;html=1;align=center;verticalAlign=middle;resizable=0;points=[];fontSize=8;" parent="jaC2uAde1-oLMsCmyeUN-48" vertex="1" connectable="0">
          <mxGeometry x="-0.2198" relative="1" as="geometry">
            <mxPoint x="-20" as="offset" />
          </mxGeometry>
        </mxCell>
        <mxCell id="jaC2uAde1-oLMsCmyeUN-50" value="" style="pointerEvents=1;verticalLabelPosition=bottom;shadow=0;dashed=0;align=center;html=1;verticalAlign=top;shape=mxgraph.electrical.signal_sources.signal_ground;" parent="jaC2uAde1-oLMsCmyeUN-36" vertex="1">
          <mxGeometry x="40" y="280" width="20" height="20" as="geometry" />
        </mxCell>
        <mxCell id="jaC2uAde1-oLMsCmyeUN-51" style="edgeStyle=orthogonalEdgeStyle;rounded=0;orthogonalLoop=1;jettySize=auto;html=1;endArrow=none;endFill=0;dashed=1;fillColor=#a20025;strokeColor=#6F0000;strokeWidth=2;exitX=0.5;exitY=0;exitDx=0;exitDy=0;exitPerimeter=0;entryX=0.218;entryY=1.03;entryDx=0;entryDy=0;entryPerimeter=0;" parent="jaC2uAde1-oLMsCmyeUN-36" source="jaC2uAde1-oLMsCmyeUN-53" edge="1">
          <mxGeometry relative="1" as="geometry">
            <mxPoint x="95" y="280" as="sourcePoint" />
            <mxPoint x="95" y="254" as="targetPoint" />
            <Array as="points">
              <mxPoint x="95" y="260" />
              <mxPoint x="95" y="260" />
            </Array>
          </mxGeometry>
        </mxCell>
        <mxCell id="jaC2uAde1-oLMsCmyeUN-52" value="last_data_count" style="edgeLabel;html=1;align=center;verticalAlign=middle;resizable=0;points=[];fontSize=8;" parent="jaC2uAde1-oLMsCmyeUN-51" vertex="1" connectable="0">
          <mxGeometry x="-0.2198" relative="1" as="geometry">
            <mxPoint y="10" as="offset" />
          </mxGeometry>
        </mxCell>
        <mxCell id="jaC2uAde1-oLMsCmyeUN-53" value="" style="pointerEvents=1;verticalLabelPosition=bottom;shadow=0;dashed=0;align=center;html=1;verticalAlign=top;shape=mxgraph.electrical.signal_sources.signal_ground;" parent="jaC2uAde1-oLMsCmyeUN-36" vertex="1">
          <mxGeometry x="85" y="280" width="20" height="20" as="geometry" />
        </mxCell>
        <mxCell id="jaC2uAde1-oLMsCmyeUN-54" style="edgeStyle=orthogonalEdgeStyle;rounded=0;orthogonalLoop=1;jettySize=auto;html=1;endArrow=none;endFill=0;dashed=1;fillColor=#a20025;strokeColor=#6F0000;strokeWidth=2;exitX=0.5;exitY=0;exitDx=0;exitDy=0;exitPerimeter=0;entryX=0.218;entryY=1.03;entryDx=0;entryDy=0;entryPerimeter=0;" parent="jaC2uAde1-oLMsCmyeUN-36" source="jaC2uAde1-oLMsCmyeUN-56" edge="1">
          <mxGeometry relative="1" as="geometry">
            <mxPoint x="140" y="280" as="sourcePoint" />
            <mxPoint x="140" y="254" as="targetPoint" />
            <Array as="points">
              <mxPoint x="140.5" y="270" />
              <mxPoint x="140.5" y="270" />
            </Array>
          </mxGeometry>
        </mxCell>
        <mxCell id="jaC2uAde1-oLMsCmyeUN-55" value="last_time" style="edgeLabel;html=1;align=center;verticalAlign=middle;resizable=0;points=[];fontSize=8;" parent="jaC2uAde1-oLMsCmyeUN-54" vertex="1" connectable="0">
          <mxGeometry x="-0.2198" relative="1" as="geometry">
            <mxPoint x="18" as="offset" />
          </mxGeometry>
        </mxCell>
        <mxCell id="jaC2uAde1-oLMsCmyeUN-56" value="" style="pointerEvents=1;verticalLabelPosition=bottom;shadow=0;dashed=0;align=center;html=1;verticalAlign=top;shape=mxgraph.electrical.signal_sources.signal_ground;" parent="jaC2uAde1-oLMsCmyeUN-36" vertex="1">
          <mxGeometry x="130" y="280" width="20" height="20" as="geometry" />
        </mxCell>
        <mxCell id="jaC2uAde1-oLMsCmyeUN-57" style="edgeStyle=orthogonalEdgeStyle;rounded=0;orthogonalLoop=1;jettySize=auto;html=1;exitX=1;exitY=0.5;exitDx=0;exitDy=0;entryX=0;entryY=0.5;entryDx=0;entryDy=0;" parent="1" source="jaC2uAde1-oLMsCmyeUN-26" target="jaC2uAde1-oLMsCmyeUN-38" edge="1">
          <mxGeometry relative="1" as="geometry" />
        </mxCell>
        <mxCell id="jaC2uAde1-oLMsCmyeUN-58" style="edgeStyle=orthogonalEdgeStyle;rounded=0;orthogonalLoop=1;jettySize=auto;html=1;exitX=1;exitY=0.5;exitDx=0;exitDy=0;entryX=0;entryY=0.5;entryDx=0;entryDy=0;" parent="1" source="jaC2uAde1-oLMsCmyeUN-6" target="jaC2uAde1-oLMsCmyeUN-24" edge="1">
          <mxGeometry relative="1" as="geometry" />
        </mxCell>
        <mxCell id="jaC2uAde1-oLMsCmyeUN-59" value="Lib.Probes.CounterStat" style="swimlane;whiteSpace=wrap;html=1;fillColor=#e1d5e7;strokeColor=#9673a6;" parent="1" vertex="1" collapsed="1">
          <mxGeometry x="120" y="405" width="170" height="30" as="geometry">
            <mxRectangle x="120" y="340" width="250" height="130" as="alternateBounds" />
          </mxGeometry>
        </mxCell>
        <mxCell id="jaC2uAde1-oLMsCmyeUN-60" value="Flush" style="swimlane;whiteSpace=wrap;html=1;fillColor=#ffe6cc;strokeColor=#d79b00;" parent="jaC2uAde1-oLMsCmyeUN-59" vertex="1">
          <mxGeometry x="30" y="35" width="70" height="80" as="geometry" />
        </mxCell>
        <mxCell id="jaC2uAde1-oLMsCmyeUN-61" value="flush" style="rounded=1;whiteSpace=wrap;html=1;fillColor=#f8cecc;strokeColor=#b85450;" parent="jaC2uAde1-oLMsCmyeUN-60" vertex="1">
          <mxGeometry x="13" y="30" width="44" height="40" as="geometry" />
        </mxCell>
        <mxCell id="jaC2uAde1-oLMsCmyeUN-62" value="StatPrint" style="swimlane;whiteSpace=wrap;html=1;fillColor=#ffe6cc;strokeColor=#d79b00;" parent="jaC2uAde1-oLMsCmyeUN-59" vertex="1">
          <mxGeometry x="160" y="40" width="70" height="70" as="geometry" />
        </mxCell>
        <mxCell id="jaC2uAde1-oLMsCmyeUN-63" value="stats" style="rounded=1;whiteSpace=wrap;html=1;fillColor=#f8cecc;strokeColor=#b85450;" parent="jaC2uAde1-oLMsCmyeUN-62" vertex="1">
          <mxGeometry x="12.25" y="32.5" width="47.75" height="27.5" as="geometry" />
        </mxCell>
        <mxCell id="jaC2uAde1-oLMsCmyeUN-64" value="" style="group" parent="jaC2uAde1-oLMsCmyeUN-59" vertex="1" connectable="0">
          <mxGeometry x="15" y="71.25" width="14" height="11" as="geometry" />
        </mxCell>
        <mxCell id="jaC2uAde1-oLMsCmyeUN-65" value="" style="ellipse;whiteSpace=wrap;html=1;aspect=fixed;" parent="jaC2uAde1-oLMsCmyeUN-64" vertex="1">
          <mxGeometry y="1" width="9" height="9" as="geometry" />
        </mxCell>
        <mxCell id="jaC2uAde1-oLMsCmyeUN-66" value="" style="rounded=0;whiteSpace=wrap;html=1;strokeColor=none;" parent="jaC2uAde1-oLMsCmyeUN-64" vertex="1">
          <mxGeometry x="4" width="10" height="11" as="geometry" />
        </mxCell>
        <mxCell id="jaC2uAde1-oLMsCmyeUN-67" style="edgeStyle=orthogonalEdgeStyle;rounded=0;orthogonalLoop=1;jettySize=auto;html=1;exitX=0.5;exitY=1;exitDx=0;exitDy=0;entryX=0;entryY=0.5;entryDx=0;entryDy=0;endArrow=none;endFill=0;" parent="jaC2uAde1-oLMsCmyeUN-59" source="jaC2uAde1-oLMsCmyeUN-65" target="jaC2uAde1-oLMsCmyeUN-61" edge="1">
          <mxGeometry relative="1" as="geometry">
            <Array as="points">
              <mxPoint x="20" y="85" />
            </Array>
          </mxGeometry>
        </mxCell>
        <mxCell id="jaC2uAde1-oLMsCmyeUN-68" style="edgeStyle=orthogonalEdgeStyle;rounded=0;orthogonalLoop=1;jettySize=auto;html=1;exitX=0.5;exitY=1;exitDx=0;exitDy=0;" parent="1" source="jaC2uAde1-oLMsCmyeUN-2" edge="1">
          <mxGeometry relative="1" as="geometry">
            <mxPoint x="410" y="340" as="sourcePoint" />
            <mxPoint x="270" y="435" as="targetPoint" />
            <Array as="points">
              <mxPoint x="410" y="370" />
              <mxPoint x="410" y="370" />
              <mxPoint x="410" y="450" />
              <mxPoint x="270" y="450" />
            </Array>
          </mxGeometry>
        </mxCell>
        <mxCell id="jaC2uAde1-oLMsCmyeUN-69" style="edgeStyle=orthogonalEdgeStyle;rounded=0;orthogonalLoop=1;jettySize=auto;html=1;exitX=1;exitY=0.5;exitDx=0;exitDy=0;" parent="1" source="jaC2uAde1-oLMsCmyeUN-32" edge="1">
          <mxGeometry relative="1" as="geometry">
            <mxPoint x="270" y="435" as="targetPoint" />
            <Array as="points">
              <mxPoint x="760" y="450" />
              <mxPoint x="270" y="450" />
            </Array>
          </mxGeometry>
        </mxCell>
        <mxCell id="jaC2uAde1-oLMsCmyeUN-70" style="edgeStyle=orthogonalEdgeStyle;rounded=0;orthogonalLoop=1;jettySize=auto;html=1;" parent="1" edge="1">
          <mxGeometry relative="1" as="geometry">
            <mxPoint x="180" y="405" as="sourcePoint" />
            <mxPoint x="240" y="225" as="targetPoint" />
            <Array as="points">
              <mxPoint x="180" y="405" />
              <mxPoint x="180" y="240" />
              <mxPoint x="240" y="240" />
            </Array>
          </mxGeometry>
        </mxCell>
        <mxCell id="jaC2uAde1-oLMsCmyeUN-71" style="edgeStyle=orthogonalEdgeStyle;rounded=0;orthogonalLoop=1;jettySize=auto;html=1;entryX=0.25;entryY=1;entryDx=0;entryDy=0;exitX=0.828;exitY=-0.032;exitDx=0;exitDy=0;exitPerimeter=0;" parent="1" source="jaC2uAde1-oLMsCmyeUN-59" target="jaC2uAde1-oLMsCmyeUN-28" edge="1">
          <mxGeometry relative="1" as="geometry">
            <mxPoint x="130" y="395" as="sourcePoint" />
            <Array as="points">
              <mxPoint x="261" y="330" />
              <mxPoint x="621" y="330" />
            </Array>
          </mxGeometry>
        </mxCell>
        <mxCell id="jaC2uAde1-oLMsCmyeUN-72" style="edgeStyle=orthogonalEdgeStyle;rounded=0;orthogonalLoop=1;jettySize=auto;html=1;exitX=0.5;exitY=0;exitDx=0;exitDy=0;entryX=1;entryY=0.5;entryDx=0;entryDy=0;endArrow=none;endFill=0;" parent="1" source="jaC2uAde1-oLMsCmyeUN-2" target="jaC2uAde1-oLMsCmyeUN-14" edge="1">
          <mxGeometry relative="1" as="geometry">
            <mxPoint x="410" y="270" as="targetPoint" />
          </mxGeometry>
        </mxCell>
        <mxCell id="jaC2uAde1-oLMsCmyeUN-73" style="edgeStyle=orthogonalEdgeStyle;rounded=0;orthogonalLoop=1;jettySize=auto;html=1;exitX=1;exitY=0.5;exitDx=0;exitDy=0;" parent="1" source="jaC2uAde1-oLMsCmyeUN-74" edge="1">
          <mxGeometry relative="1" as="geometry">
            <mxPoint x="145" y="435" as="targetPoint" />
            <Array as="points">
              <mxPoint x="75" y="450" />
              <mxPoint x="145" y="450" />
            </Array>
          </mxGeometry>
        </mxCell>
        <mxCell id="jaC2uAde1-oLMsCmyeUN-74" value="flush" style="ellipse;whiteSpace=wrap;html=1;aspect=fixed;fillColor=#fff2cc;strokeColor=#d6b656;" parent="1" vertex="1">
          <mxGeometry x="20" y="400" width="60" height="60" as="geometry" />
        </mxCell>
      </root>
    </mxGraphModel>
  </diagram>
  <diagram id="6lZl7X_zJ2gKtEIaiSUw" name="legend">
    <mxGraphModel dx="661" dy="906" grid="1" gridSize="10" guides="1" tooltips="1" connect="1" arrows="1" fold="1" page="1" pageScale="1" pageWidth="850" pageHeight="1100" math="0" shadow="0">
      <root>
        <mxCell id="0" />
        <mxCell id="1" parent="0" />
        <mxCell id="EFxti6_3qp7NI1MX1i3F-1" value="&lt;span style=&quot;color: rgb(0, 0, 0); font-family: Helvetica; font-size: 12px; font-style: normal; font-variant-ligatures: normal; font-variant-caps: normal; font-weight: 400; letter-spacing: normal; orphans: 2; text-align: center; text-indent: 0px; text-transform: none; widows: 2; word-spacing: 0px; -webkit-text-stroke-width: 0px; background-color: rgb(251, 251, 251); text-decoration-thickness: initial; text-decoration-style: initial; text-decoration-color: initial; float: none; display: inline !important;&quot;&gt;system node (external)&lt;/span&gt;" style="ellipse;whiteSpace=wrap;html=1;aspect=fixed;fillColor=#fff2cc;strokeColor=#d6b656;labelPosition=center;verticalLabelPosition=bottom;align=center;verticalAlign=top;" parent="1" vertex="1">
          <mxGeometry x="12.5" y="10" width="60" height="60" as="geometry" />
        </mxCell>
        <mxCell id="EFxti6_3qp7NI1MX1i3F-3" value="null node (drop)" style="pointerEvents=1;verticalLabelPosition=bottom;shadow=0;dashed=0;align=center;html=1;verticalAlign=top;shape=mxgraph.electrical.signal_sources.signal_ground;" parent="1" vertex="1">
          <mxGeometry x="130" y="50" width="20" height="20" as="geometry" />
        </mxCell>
        <mxCell id="EFxti6_3qp7NI1MX1i3F-5" value="&lt;span style=&quot;color: rgb(0, 0, 0); font-family: Helvetica; font-size: 12px; font-style: normal; font-variant-ligatures: normal; font-variant-caps: normal; font-weight: 400; letter-spacing: normal; orphans: 2; text-align: center; text-indent: 0px; text-transform: none; widows: 2; word-spacing: 0px; -webkit-text-stroke-width: 0px; background-color: rgb(251, 251, 251); text-decoration-thickness: initial; text-decoration-style: initial; text-decoration-color: initial; float: none; display: inline !important;&quot;&gt;composite node&lt;/span&gt;" style="swimlane;whiteSpace=wrap;html=1;dashed=1;startSize=23;labelPosition=center;verticalLabelPosition=bottom;align=center;verticalAlign=top;" parent="1" vertex="1">
          <mxGeometry x="330" y="20" width="60" height="50" as="geometry">
            <mxRectangle x="140" y="720" width="185" height="30" as="alternateBounds" />
          </mxGeometry>
        </mxCell>
        <mxCell id="EFxti6_3qp7NI1MX1i3F-6" value="actor node" style="swimlane;whiteSpace=wrap;html=1;fillColor=#ffe6cc;strokeColor=#d79b00;startSize=23;labelPosition=center;verticalLabelPosition=bottom;align=center;verticalAlign=top;fontStyle=0" parent="1" vertex="1">
          <mxGeometry x="450" y="20" width="60" height="50" as="geometry" />
        </mxCell>
        <mxCell id="EFxti6_3qp7NI1MX1i3F-8" value="&lt;span style=&quot;color: rgb(0, 0, 0); font-family: Helvetica; font-size: 12px; font-style: normal; font-variant-ligatures: normal; font-variant-caps: normal; font-weight: 400; letter-spacing: normal; orphans: 2; text-align: center; text-indent: 0px; text-transform: none; widows: 2; word-spacing: 0px; -webkit-text-stroke-width: 0px; background-color: rgb(251, 251, 251); text-decoration-thickness: initial; text-decoration-style: initial; text-decoration-color: initial; float: none; display: inline !important;&quot;&gt;kernel node&lt;/span&gt;" style="rounded=1;whiteSpace=wrap;html=1;fillColor=#f8cecc;strokeColor=#b85450;labelPosition=center;verticalLabelPosition=bottom;align=center;verticalAlign=top;" parent="1" vertex="1">
          <mxGeometry x="570" y="30" width="55" height="40" as="geometry" />
        </mxCell>
        <mxCell id="EFxti6_3qp7NI1MX1i3F-11" value="platform node" style="swimlane;whiteSpace=wrap;html=1;fillColor=#e1d5e7;strokeColor=#9673a6;startSize=20;labelPosition=center;verticalLabelPosition=bottom;align=center;verticalAlign=top;fontStyle=0" parent="1" vertex="1">
          <mxGeometry x="210" y="20" width="60" height="50" as="geometry">
            <mxRectangle x="510" y="820" width="170" height="30" as="alternateBounds" />
          </mxGeometry>
        </mxCell>
        <mxCell id="EFxti6_3qp7NI1MX1i3F-13" value="" style="endArrow=classic;html=1;rounded=0;" parent="1" edge="1">
          <mxGeometry width="50" height="50" relative="1" as="geometry">
            <mxPoint x="690" y="70" as="sourcePoint" />
            <mxPoint x="730" y="30" as="targetPoint" />
          </mxGeometry>
        </mxCell>
        <mxCell id="EFxti6_3qp7NI1MX1i3F-14" value="event edge" style="text;html=1;strokeColor=none;fillColor=none;align=center;verticalAlign=middle;whiteSpace=wrap;rounded=0;" parent="1" vertex="1">
          <mxGeometry x="670" y="80" width="60" height="30" as="geometry" />
        </mxCell>
        <mxCell id="EFxti6_3qp7NI1MX1i3F-15" value="" style="endArrow=none;html=1;rounded=0;dashed=1;fillColor=#a20025;strokeColor=#6F0000;strokeWidth=2;" parent="1" edge="1">
          <mxGeometry width="50" height="50" relative="1" as="geometry">
            <mxPoint x="790" y="70" as="sourcePoint" />
            <mxPoint x="830" y="30" as="targetPoint" />
          </mxGeometry>
        </mxCell>
        <mxCell id="EFxti6_3qp7NI1MX1i3F-16" value="storage edge" style="text;html=1;strokeColor=none;fillColor=none;align=center;verticalAlign=middle;whiteSpace=wrap;rounded=0;" parent="1" vertex="1">
          <mxGeometry x="780" y="80" width="60" height="30" as="geometry" />
        </mxCell>
      </root>
    </mxGraphModel>
  </diagram>
  <diagram id="RPiEWZWfpKJZhbrcwYFK" name="Platform">
    <mxGraphModel dx="793" dy="1087" grid="1" gridSize="10" guides="1" tooltips="1" connect="1" arrows="1" fold="1" page="1" pageScale="1" pageWidth="850" pageHeight="1100" math="0" shadow="0">
      <root>
        <mxCell id="0" />
        <mxCell id="1" parent="0" />
        <mxCell id="RhV9QJZI7I-UTYIwpCGa-1" value="" style="endArrow=none;dashed=1;html=1;dashPattern=1 3;strokeWidth=2;rounded=0;" parent="1" edge="1">
          <mxGeometry width="50" height="50" relative="1" as="geometry">
            <mxPoint x="300" y="244.66" as="sourcePoint" />
            <mxPoint x="570" y="245" as="targetPoint" />
          </mxGeometry>
        </mxCell>
        <mxCell id="XksFlOU_dw82PTzHU_hX-12" value="" style="group" parent="1" vertex="1" connectable="0">
          <mxGeometry x="330" y="270" width="160" height="90" as="geometry" />
        </mxCell>
        <mxCell id="XksFlOU_dw82PTzHU_hX-13" value="Unix &lt;br&gt;Process" style="shape=process;whiteSpace=wrap;html=1;backgroundOutline=1;size=0.1875;fillColor=#ffe6cc;strokeColor=#d79b00;" parent="XksFlOU_dw82PTzHU_hX-12" vertex="1">
          <mxGeometry width="160" height="80" as="geometry" />
        </mxCell>
        <mxCell id="XksFlOU_dw82PTzHU_hX-14" value="&lt;font style=&quot;font-size: 10px;&quot;&gt;in socket&lt;/font&gt;" style="text;html=1;strokeColor=none;fillColor=none;align=center;verticalAlign=middle;whiteSpace=wrap;rounded=0;rotation=-90;" parent="XksFlOU_dw82PTzHU_hX-12" vertex="1">
          <mxGeometry x="-10" y="35" width="50" height="10" as="geometry" />
        </mxCell>
        <mxCell id="XksFlOU_dw82PTzHU_hX-15" value="&lt;font style=&quot;font-size: 10px;&quot;&gt;out socket&lt;/font&gt;" style="text;html=1;strokeColor=none;fillColor=none;align=center;verticalAlign=middle;whiteSpace=wrap;rounded=0;rotation=-90;" parent="XksFlOU_dw82PTzHU_hX-12" vertex="1">
          <mxGeometry x="120" y="35" width="50" height="10" as="geometry" />
        </mxCell>
        <mxCell id="XksFlOU_dw82PTzHU_hX-16" value="" style="group;fillColor=#ffe6cc;strokeColor=#d79b00;" parent="XksFlOU_dw82PTzHU_hX-12" vertex="1" connectable="0">
          <mxGeometry x="-10" y="10" width="160" height="80" as="geometry" />
        </mxCell>
        <mxCell id="XksFlOU_dw82PTzHU_hX-17" value="Unix &lt;br&gt;Process" style="shape=process;whiteSpace=wrap;html=1;backgroundOutline=1;size=0.1875;fillColor=#ffe6cc;strokeColor=#d79b00;" parent="XksFlOU_dw82PTzHU_hX-16" vertex="1">
          <mxGeometry width="160" height="80" as="geometry" />
        </mxCell>
        <mxCell id="XksFlOU_dw82PTzHU_hX-18" value="&lt;font style=&quot;font-size: 10px;&quot;&gt;in socket&lt;/font&gt;" style="text;html=1;strokeColor=none;fillColor=none;align=center;verticalAlign=middle;whiteSpace=wrap;rounded=0;rotation=-90;" parent="XksFlOU_dw82PTzHU_hX-16" vertex="1">
          <mxGeometry x="-10" y="35" width="50" height="10" as="geometry" />
        </mxCell>
        <mxCell id="XksFlOU_dw82PTzHU_hX-19" value="&lt;font style=&quot;font-size: 10px;&quot;&gt;out socket&lt;/font&gt;" style="text;html=1;strokeColor=none;fillColor=none;align=center;verticalAlign=middle;whiteSpace=wrap;rounded=0;rotation=-90;" parent="XksFlOU_dw82PTzHU_hX-16" vertex="1">
          <mxGeometry x="120" y="35" width="50" height="10" as="geometry" />
        </mxCell>
        <mxCell id="XksFlOU_dw82PTzHU_hX-20" value="" style="group" parent="1" vertex="1" connectable="0">
          <mxGeometry x="310" y="290" width="160" height="80" as="geometry" />
        </mxCell>
        <mxCell id="XksFlOU_dw82PTzHU_hX-21" value="Unix &lt;br&gt;Process" style="shape=process;whiteSpace=wrap;html=1;backgroundOutline=1;size=0.1875;fillColor=#ffe6cc;strokeColor=#d79b00;" parent="XksFlOU_dw82PTzHU_hX-20" vertex="1">
          <mxGeometry width="160" height="80" as="geometry" />
        </mxCell>
        <mxCell id="XksFlOU_dw82PTzHU_hX-22" value="&lt;font style=&quot;font-size: 10px;&quot;&gt;in socket&lt;/font&gt;" style="text;html=1;strokeColor=none;fillColor=none;align=center;verticalAlign=middle;whiteSpace=wrap;rounded=0;rotation=-90;" parent="XksFlOU_dw82PTzHU_hX-20" vertex="1">
          <mxGeometry x="-10" y="35" width="50" height="10" as="geometry" />
        </mxCell>
        <mxCell id="XksFlOU_dw82PTzHU_hX-23" value="&lt;font style=&quot;font-size: 10px;&quot;&gt;out socket&lt;/font&gt;" style="text;html=1;strokeColor=none;fillColor=none;align=center;verticalAlign=middle;whiteSpace=wrap;rounded=0;rotation=-90;" parent="XksFlOU_dw82PTzHU_hX-20" vertex="1">
          <mxGeometry x="120" y="35" width="50" height="10" as="geometry" />
        </mxCell>
        <mxCell id="XksFlOU_dw82PTzHU_hX-40" style="rounded=0;orthogonalLoop=1;jettySize=auto;html=1;exitX=0;exitY=0.5;exitDx=0;exitDy=0;entryX=1;entryY=0;entryDx=0;entryDy=0;strokeWidth=2;" parent="1" source="XksFlOU_dw82PTzHU_hX-25" target="XksFlOU_dw82PTzHU_hX-38" edge="1">
          <mxGeometry relative="1" as="geometry" />
        </mxCell>
        <mxCell id="XksFlOU_dw82PTzHU_hX-25" value="Name Server" style="shape=process;whiteSpace=wrap;html=1;backgroundOutline=1;size=0.1875;fillColor=#f8cecc;strokeColor=#b85450;" parent="1" vertex="1">
          <mxGeometry x="320" y="30" width="160" height="80" as="geometry" />
        </mxCell>
        <mxCell id="XksFlOU_dw82PTzHU_hX-28" value="Deploy Agent" style="shape=process;whiteSpace=wrap;html=1;backgroundOutline=1;size=0.1875;fillColor=#d5e8d4;strokeColor=#82b366;" parent="1" vertex="1">
          <mxGeometry x="320" y="140" width="160" height="80" as="geometry" />
        </mxCell>
        <mxCell id="XksFlOU_dw82PTzHU_hX-29" value="start/ stop" style="ellipse;whiteSpace=wrap;html=1;aspect=fixed;" parent="1" vertex="1">
          <mxGeometry x="180" y="210" width="50" height="50" as="geometry" />
        </mxCell>
        <mxCell id="XksFlOU_dw82PTzHU_hX-30" value="download" style="ellipse;whiteSpace=wrap;html=1;aspect=fixed;" parent="1" vertex="1">
          <mxGeometry x="180" y="120" width="50" height="50" as="geometry" />
        </mxCell>
        <mxCell id="XksFlOU_dw82PTzHU_hX-39" style="rounded=0;orthogonalLoop=1;jettySize=auto;html=1;exitX=1;exitY=0.5;exitDx=0;exitDy=0;strokeWidth=2;" parent="1" source="XksFlOU_dw82PTzHU_hX-31" target="XksFlOU_dw82PTzHU_hX-25" edge="1">
          <mxGeometry relative="1" as="geometry" />
        </mxCell>
        <mxCell id="XksFlOU_dw82PTzHU_hX-31" value="config" style="ellipse;whiteSpace=wrap;html=1;aspect=fixed;" parent="1" vertex="1">
          <mxGeometry x="180" y="30" width="50" height="50" as="geometry" />
        </mxCell>
        <mxCell id="XksFlOU_dw82PTzHU_hX-33" value="" style="html=1;shadow=0;dashed=0;align=center;verticalAlign=middle;shape=mxgraph.arrows2.arrow;dy=0.52;dx=21.72;direction=south;notch=0;" parent="1" vertex="1">
          <mxGeometry x="357.5" y="230" width="85" height="30" as="geometry" />
        </mxCell>
        <mxCell id="XksFlOU_dw82PTzHU_hX-42" style="rounded=0;orthogonalLoop=1;jettySize=auto;html=1;exitX=1;exitY=0.5;exitDx=0;exitDy=0;strokeWidth=2;" parent="1" source="XksFlOU_dw82PTzHU_hX-30" target="XksFlOU_dw82PTzHU_hX-28" edge="1">
          <mxGeometry relative="1" as="geometry">
            <mxPoint x="240" y="65" as="sourcePoint" />
            <mxPoint x="330" y="80" as="targetPoint" />
          </mxGeometry>
        </mxCell>
        <mxCell id="XksFlOU_dw82PTzHU_hX-43" style="rounded=0;orthogonalLoop=1;jettySize=auto;html=1;exitX=1;exitY=0.5;exitDx=0;exitDy=0;strokeWidth=2;" parent="1" source="XksFlOU_dw82PTzHU_hX-29" target="XksFlOU_dw82PTzHU_hX-28" edge="1">
          <mxGeometry relative="1" as="geometry">
            <mxPoint x="240" y="155" as="sourcePoint" />
            <mxPoint x="330" y="190" as="targetPoint" />
          </mxGeometry>
        </mxCell>
        <mxCell id="XksFlOU_dw82PTzHU_hX-45" style="rounded=0;orthogonalLoop=1;jettySize=auto;html=1;exitX=1;exitY=0.5;exitDx=0;exitDy=0;entryX=0;entryY=0.5;entryDx=0;entryDy=0;strokeWidth=2;" parent="1" source="XksFlOU_dw82PTzHU_hX-38" target="XksFlOU_dw82PTzHU_hX-21" edge="1">
          <mxGeometry relative="1" as="geometry">
            <mxPoint x="250" y="165" as="sourcePoint" />
            <mxPoint x="340" y="200" as="targetPoint" />
          </mxGeometry>
        </mxCell>
        <mxCell id="XksFlOU_dw82PTzHU_hX-46" style="rounded=0;orthogonalLoop=1;jettySize=auto;html=1;entryX=0;entryY=0.125;entryDx=0;entryDy=0;strokeWidth=2;entryPerimeter=0;" parent="1" source="XksFlOU_dw82PTzHU_hX-31" target="XksFlOU_dw82PTzHU_hX-21" edge="1">
          <mxGeometry relative="1" as="geometry">
            <mxPoint x="260" y="175" as="sourcePoint" />
            <mxPoint x="350" y="210" as="targetPoint" />
          </mxGeometry>
        </mxCell>
        <mxCell id="XksFlOU_dw82PTzHU_hX-47" value="" style="group" parent="1" vertex="1" connectable="0">
          <mxGeometry x="170" y="305" width="70" height="50" as="geometry" />
        </mxCell>
        <mxCell id="XksFlOU_dw82PTzHU_hX-32" value="" style="ellipse;whiteSpace=wrap;html=1;aspect=fixed;" parent="XksFlOU_dw82PTzHU_hX-47" vertex="1">
          <mxGeometry width="50" height="50" as="geometry" />
        </mxCell>
        <mxCell id="XksFlOU_dw82PTzHU_hX-37" value="" style="ellipse;whiteSpace=wrap;html=1;aspect=fixed;" parent="XksFlOU_dw82PTzHU_hX-47" vertex="1">
          <mxGeometry x="10" width="50" height="50" as="geometry" />
        </mxCell>
        <mxCell id="XksFlOU_dw82PTzHU_hX-38" value="system triggers" style="ellipse;whiteSpace=wrap;html=1;aspect=fixed;" parent="XksFlOU_dw82PTzHU_hX-47" vertex="1">
          <mxGeometry x="20" width="50" height="50" as="geometry" />
        </mxCell>
        <mxCell id="XksFlOU_dw82PTzHU_hX-48" value="Deployment &lt;br&gt;Spec" style="verticalLabelPosition=bottom;html=1;verticalAlign=top;align=center;strokeColor=none;fillColor=#00BEF2;shape=mxgraph.azure.script_file;pointerEvents=1;" parent="1" vertex="1">
          <mxGeometry x="20" y="102.5" width="70" height="85" as="geometry" />
        </mxCell>
        <mxCell id="XksFlOU_dw82PTzHU_hX-49" style="rounded=0;orthogonalLoop=1;jettySize=auto;html=1;exitX=0.969;exitY=0.296;exitDx=0;exitDy=0;strokeWidth=2;exitPerimeter=0;" parent="1" source="XksFlOU_dw82PTzHU_hX-48" target="XksFlOU_dw82PTzHU_hX-31" edge="1">
          <mxGeometry relative="1" as="geometry">
            <mxPoint x="240" y="65" as="sourcePoint" />
            <mxPoint x="330" y="73" as="targetPoint" />
          </mxGeometry>
        </mxCell>
        <mxCell id="XksFlOU_dw82PTzHU_hX-50" style="rounded=0;orthogonalLoop=1;jettySize=auto;html=1;exitX=1;exitY=0.5;exitDx=0;exitDy=0;strokeWidth=2;exitPerimeter=0;entryX=0;entryY=0.5;entryDx=0;entryDy=0;" parent="1" source="XksFlOU_dw82PTzHU_hX-48" target="XksFlOU_dw82PTzHU_hX-30" edge="1">
          <mxGeometry relative="1" as="geometry">
            <mxPoint x="98" y="145" as="sourcePoint" />
            <mxPoint x="194" y="79" as="targetPoint" />
          </mxGeometry>
        </mxCell>
        <mxCell id="XksFlOU_dw82PTzHU_hX-52" style="rounded=0;orthogonalLoop=1;jettySize=auto;html=1;exitX=0.96;exitY=0.742;exitDx=0;exitDy=0;strokeWidth=2;exitPerimeter=0;" parent="1" source="XksFlOU_dw82PTzHU_hX-48" target="XksFlOU_dw82PTzHU_hX-29" edge="1">
          <mxGeometry relative="1" as="geometry">
            <mxPoint x="100" y="163" as="sourcePoint" />
            <mxPoint x="190" y="155" as="targetPoint" />
          </mxGeometry>
        </mxCell>
        <mxCell id="RhV9QJZI7I-UTYIwpCGa-3" value="&quot;platform&quot;" style="text;html=1;strokeColor=none;fillColor=none;align=center;verticalAlign=middle;whiteSpace=wrap;rounded=0;" parent="1" vertex="1">
          <mxGeometry x="510" y="210" width="60" height="30" as="geometry" />
        </mxCell>
        <mxCell id="RhV9QJZI7I-UTYIwpCGa-4" value="&quot;application&quot;" style="text;html=1;strokeColor=none;fillColor=none;align=center;verticalAlign=middle;whiteSpace=wrap;rounded=0;" parent="1" vertex="1">
          <mxGeometry x="510" y="250" width="60" height="30" as="geometry" />
        </mxCell>
      </root>
    </mxGraphModel>
  </diagram>
  <diagram id="JEAYtIIUy035gIfn1RIG" name="legend 2">
    <mxGraphModel dx="793" dy="1087" grid="1" gridSize="10" guides="1" tooltips="1" connect="1" arrows="1" fold="1" page="1" pageScale="1" pageWidth="850" pageHeight="1100" math="0" shadow="0">
      <root>
        <mxCell id="0" />
        <mxCell id="1" parent="0" />
        <mxCell id="mQ7AcuZr8lnq5zC7vAwL-35" value="specification file" style="verticalLabelPosition=bottom;html=1;verticalAlign=top;align=center;strokeColor=none;fillColor=#000000;shape=mxgraph.azure.script_file;pointerEvents=1;" parent="1" vertex="1">
          <mxGeometry x="25" y="20" width="50" height="60" as="geometry" />
        </mxCell>
        <mxCell id="mQ7AcuZr8lnq5zC7vAwL-36" value="command" style="ellipse;whiteSpace=wrap;html=1;aspect=fixed;labelPosition=center;verticalLabelPosition=bottom;align=center;verticalAlign=top;" parent="1" vertex="1">
          <mxGeometry x="125" y="30" width="50" height="50" as="geometry" />
        </mxCell>
        <mxCell id="mQ7AcuZr8lnq5zC7vAwL-37" value="&lt;span style=&quot;color: rgb(0, 0, 0); font-family: Helvetica; font-size: 12px; font-style: normal; font-variant-ligatures: normal; font-variant-caps: normal; font-weight: 400; letter-spacing: normal; orphans: 2; text-align: center; text-indent: 0px; text-transform: none; widows: 2; word-spacing: 0px; -webkit-text-stroke-width: 0px; background-color: rgb(251, 251, 251); text-decoration-thickness: initial; text-decoration-style: initial; text-decoration-color: initial; float: none; display: inline !important;&quot;&gt;Unix process&lt;/span&gt;" style="shape=process;whiteSpace=wrap;html=1;backgroundOutline=1;size=0.1875;labelPosition=center;verticalLabelPosition=bottom;align=center;verticalAlign=top;" parent="1" vertex="1">
          <mxGeometry x="230" y="40" width="70" height="40" as="geometry" />
        </mxCell>
        <mxCell id="mQ7AcuZr8lnq5zC7vAwL-38" style="rounded=0;orthogonalLoop=1;jettySize=auto;html=1;strokeWidth=2;" parent="1" edge="1">
          <mxGeometry relative="1" as="geometry">
            <mxPoint x="349.9979824644819" y="79.99862575045745" as="sourcePoint" />
            <mxPoint x="402.5" y="40" as="targetPoint" />
          </mxGeometry>
        </mxCell>
        <mxCell id="mQ7AcuZr8lnq5zC7vAwL-42" value="dependency" style="text;html=1;strokeColor=none;fillColor=none;align=center;verticalAlign=middle;whiteSpace=wrap;rounded=0;" parent="1" vertex="1">
          <mxGeometry x="330" y="80" width="90" height="30" as="geometry" />
        </mxCell>
      </root>
    </mxGraphModel>
  </diagram>
</mxfile>
